<?xml version="1.0" encoding="UTF-8" standalone="no"?>
<svg
   xmlns:dc="http://purl.org/dc/elements/1.1/"
   xmlns:cc="http://creativecommons.org/ns#"
   xmlns:rdf="http://www.w3.org/1999/02/22-rdf-syntax-ns#"
   xmlns:svg="http://www.w3.org/2000/svg"
   xmlns="http://www.w3.org/2000/svg"
   xmlns:sodipodi="http://sodipodi.sourceforge.net/DTD/sodipodi-0.dtd"
   xmlns:inkscape="http://www.inkscape.org/namespaces/inkscape"
   width="100"
   height="50"
   version="1.1"
   id="svg119"
   sodipodi:docname="led_red.svg"
   inkscape:version="0.92.3 (unknown)">
  <metadata
     id="metadata125">
    <rdf:RDF>
      <cc:Work
         rdf:about="">
        <dc:format>image/svg+xml</dc:format>
        <dc:type
           rdf:resource="http://purl.org/dc/dcmitype/StillImage" />
        <dc:title></dc:title>
      </cc:Work>
    </rdf:RDF>
  </metadata>
  <defs
     id="defs123" />
  <sodipodi:namedview
     pagecolor="#ffffff"
     bordercolor="#666666"
     borderopacity="1"
     objecttolerance="10"
     gridtolerance="10"
     guidetolerance="10"
     inkscape:pageopacity="0"
     inkscape:pageshadow="2"
     inkscape:window-width="1920"
     inkscape:window-height="1019"
     id="namedview121"
     showgrid="false"
     inkscape:zoom="9.5866158"
     inkscape:cx="77.53406"
     inkscape:cy="22.828193"
     inkscape:window-x="0"
     inkscape:window-y="1080"
     inkscape:window-maximized="1"
     inkscape:current-layer="svg119" />
  <clipPath
     id="p.0">
    <path
       id="svg_1"
       d="M 0,0 H 800 V 600 H 0 Z"
       inkscape:connector-curvature="0"
       style="clip-rule:nonzero" />
  </clipPath>
  <g
     id="g103"
     transform="translate(0,-45)">
    <title
       id="title100">background</title>
    <rect
       id="canvas_background"
       height="97"
       width="228"
       y="-1"
       x="-1"
       style="fill:none" />
  </g>
  <g
     id="g117"
     transform="matrix(0.46278344,0,0,0.53419377,-3.1531113,-0.45002787)">
    <title
       id="title105">Layer 1</title>
    <g
       id="svg_2"
       clip-path="url(#p.0)">
      <path
         id="svg_3"
         d="M -109,-347 H 691 V 253 H -109 Z"
         inkscape:connector-curvature="0"
         style="fill:#000000;fill-opacity:0;fill-rule:evenodd" />
      <path
         id="svg_4"
         d="m 146.17455,3.00787 h 75.83333 c -8.37631,0 -15.16666,20.147186 -15.16666,45 0,24.852814 6.79035,45 15.16666,45 h -75.83333 v 0 c -8.37633,0 -15.16667,-20.147186 -15.16667,-45 0,-24.852814 6.79034,-45 15.16667,-45 z"
         inkscape:connector-curvature="0"
         style="fill:#999999;fill-rule:evenodd" />
      <path
         id="svg_5"
         d="m 146.17455,3.00787 h 75.83333 c -8.37631,0 -15.16666,20.147186 -15.16666,45 0,24.852814 6.79035,45 15.16666,45 h -75.83333 v 0 c -8.37633,0 -15.16667,-20.147186 -15.16667,-45 0,-24.852814 6.79034,-45 15.16667,-45 z"
         inkscape:connector-curvature="0"
         style="fill:#bbbbbb;fill-rule:evenodd;stroke:#000000;stroke-linejoin:round" />
      <path
         id="svg_6"
         d="M 83.83727,93 H 8.00394 C 16.38026,93 23.170612,72.852814 23.170612,48 23.170612,23.147186 16.38026,3 8.00394,3 h 75.83333 v 0 c 8.376327,0 15.166672,20.147186 15.166672,45 0,24.852814 -6.790344,45 -15.166672,45 z"
         inkscape:connector-curvature="0"
         style="fill:#999999;fill-rule:evenodd" />
      <path
         id="svg_7"
         d="M 83.83727,93 H 8.00394 C 16.38026,93 23.170612,72.852814 23.170612,48 23.170612,23.147186 16.38026,3 8.00394,3 h 75.83333 v 0 c 8.376327,0 15.166672,20.147186 15.166672,45 0,24.852814 -6.790344,45 -15.166672,45 z"
         inkscape:connector-curvature="0"
         style="fill:#bbbbbb;fill-rule:evenodd;stroke:#000000;stroke-linejoin:round" />
      <path
         id="svg_8"
         d="M 42.00787,3 H 192.02362 V 93.01575 H 42.00787 Z"
         inkscape:connector-curvature="0"
         style="fill:#ffffff;fill-rule:evenodd" />
      <path
         id="svg_9"
         d="M 42.00787,3 H 192.02362 V 93.01575 H 42.00787 Z"
         inkscape:connector-curvature="0"
         style="fill:#ffffff;fill-rule:evenodd;stroke:#000000;stroke-linejoin:round" />
      <path
         id="svg_10"
         d="m 172.02362,3 h 20 v 9.007874 h -20 z"
         inkscape:connector-curvature="0"
         style="fill:#38761d;fill-rule:evenodd" />
      <path
         id="svg_11"
         d="M 64.49606,12.50394 H 169.53543 V 83.49607 H 64.49606 Z"
         inkscape:connector-curvature="0"
         style="fill:#0000ff;fill-rule:evenodd" />
    </g>
  </g>
  <path
     style="stroke-width:0.1043121;fill:#ff0000"
     d="M 26.754931,25.189877 V 6.3093875 H 51.007494 75.260056 V 25.189877 44.070367 H 51.007494 26.754931 Z"
     id="path127"
     inkscape:connector-curvature="0" />
</svg>
