<svg width="163" height="126" xmlns="http://www.w3.org/2000/svg">

 <g>
  <title>background</title>
  <rect fill="none" id="canvas_background" height="128" width="165" y="-1" x="-1"/>
 </g>
 <g>
  <title>Layer 1</title>
  <path id="svg_1" fill-rule="evenodd" d="m-471.00015,-223l980.00015,0l0,600l-800,0l0,-600z" fill-opacity="0" fill="#000000"/>
  <path id="svg_2" fill-rule="evenodd" d="m6.707941,30.82179l153.5999,0l0,6.34854l-153.5999,0l0,-6.34854z" fill="#000000"/>
  <path id="svg_3" fill-rule="evenodd" d="m6.707941,30.82179l153.5999,0l0,6.34854l-153.5999,0l0,-6.34854z" stroke-linejoin="round" stroke="#000000"/>
  <path id="svg_4" fill-rule="evenodd" d="m6.707941,88.8218l153.5999,0l0,6.34854l-153.5999,0l0,-6.34854z" fill="#000000"/>
  <path id="svg_5" fill-rule="evenodd" d="m6.707941,88.8218l153.5999,0l0,6.34854l-153.5999,0l0,-6.34854z" stroke-linejoin="round" stroke="#000000"/>
  <path id="svg_6" fill-rule="evenodd" d="m25.003941,23.66834l0,0c0,-10.0341 8.13425,-18.16834 18.16834,-18.16834l80.6712,0c4.81854,0 9.43972,1.91416 12.84695,5.32138c3.40723,3.40722 5.32138,8.02842 5.32138,12.84696l0,72.6712c0,10.03408 -8.13425,18.16833 -18.16834,18.16833l-80.6712,0l0,0c-10.03408,0 -18.16833,-8.13425 -18.16833,-18.16833l0,-72.6712z" fill="#cccccc"/>
  <path fill="#BBBBBB" id="svg_7" fill-rule="evenodd" d="m25.003941,23.66834l0,0c0,-10.0341 8.13425,-18.16834 18.16834,-18.16834l80.6712,0c4.81854,0 9.43972,1.91416 12.84695,5.32138c3.40723,3.40722 5.32138,8.02842 5.32138,12.84696l0,72.6712c0,10.03408 -8.13425,18.16833 -18.16834,18.16833l-80.6712,0l0,0c-10.03408,0 -18.16833,-8.13425 -18.16833,-18.16833l0,-72.6712z" stroke-linejoin="round" stroke-width="4" stroke="#000000"/>
  <path id="svg_8" fill-rule="evenodd" d="m52.003941,33.99606l0,0c0,4.69659 -4.25153,8.50394 -9.49606,8.50394l0,0c-5.24454,0 -9.49607,-3.80735 -9.49607,-8.50394l0,0c0,-4.69659 4.25153,-8.50394 9.49607,-8.50394l0,0c5.24453,0 9.49606,3.80735 9.49606,8.50394z" fill="#000000"/>
  <path id="svg_9" fill-rule="evenodd" d="m52.003941,33.99606l0,0c0,4.69659 -4.25153,8.50394 -9.49606,8.50394l0,0c-5.24454,0 -9.49607,-3.80735 -9.49607,-8.50394l0,0c0,-4.69659 4.25153,-8.50394 9.49607,-8.50394l0,0c5.24453,0 9.49606,3.80735 9.49606,8.50394z" stroke-linejoin="round" stroke="#000000"/>
  <path id="svg_10" fill-rule="evenodd" d="m135.003941,33.99606l0,0c0,4.69659 -4.25153,8.50394 -9.49606,8.50394l0,0c-5.24454,0 -9.49607,-3.80735 -9.49607,-8.50394l0,0c0,-4.69659 4.25153,-8.50394 9.49607,-8.50394l0,0c5.24453,0 9.49606,3.80735 9.49606,8.50394z" fill="#000000"/>
  <path id="svg_11" fill-rule="evenodd" d="m135.003941,33.99606l0,0c0,4.69659 -4.25153,8.50394 -9.49606,8.50394l0,0c-5.24454,0 -9.49607,-3.80735 -9.49607,-8.50394l0,0c0,-4.69659 4.25153,-8.50394 9.49607,-8.50394l0,0c5.24453,0 9.49606,3.80735 9.49606,8.50394z" stroke-linejoin="round" stroke="#000000"/>
  <path id="svg_12" fill-rule="evenodd" d="m52.003941,91.99606l0,0c0,4.69659 -4.25153,8.50394 -9.49606,8.50394l0,0c-5.24454,0 -9.49607,-3.80735 -9.49607,-8.50394l0,0c0,-4.69659 4.25153,-8.50394 9.49607,-8.50394l0,0c5.24453,0 9.49606,3.80735 9.49606,8.50394z" fill="#000000"/>
  <path id="svg_13" fill-rule="evenodd" d="m52.003941,91.99606l0,0c0,4.69659 -4.25153,8.50394 -9.49606,8.50394l0,0c-5.24454,0 -9.49607,-3.80735 -9.49607,-8.50394l0,0c0,-4.69659 4.25153,-8.50394 9.49607,-8.50394l0,0c5.24453,0 9.49606,3.80735 9.49606,8.50394z" stroke-linejoin="round" stroke="#000000"/>
  <path id="svg_14" fill-rule="evenodd" d="m135.003941,91.99606l0,0c0,4.69659 -4.25153,8.50394 -9.49606,8.50394l0,0c-5.24454,0 -9.49607,-3.80735 -9.49607,-8.50394l0,0c0,-4.69659 4.25153,-8.50394 9.49607,-8.50394l0,0c5.24453,0 9.49606,3.80735 9.49606,8.50394z" fill="#000000"/>
  <path id="svg_15" fill-rule="evenodd" d="m135.003941,91.99606l0,0c0,4.69659 -4.25153,8.50394 -9.49606,8.50394l0,0c-5.24454,0 -9.49607,-3.80735 -9.49607,-8.50394l0,0c0,-4.69659 4.25153,-8.50394 9.49607,-8.50394l0,0c5.24453,0 9.49606,3.80735 9.49606,8.50394z" stroke-linejoin="round" stroke="#000000"/>
  <path id="svg_16" fill-rule="evenodd" d="m54.500001,60.00394l0,0c0,-13.53315 12.98727,-24.50394 29.00787,-24.50394l0,0c16.0206,0 29.00788,10.97079 29.00788,24.50394l0,0c0,13.53316 -12.98728,24.50394 -29.00788,24.50394l0,0c-16.0206,0 -29.00787,-10.97078 -29.00787,-24.50394z" fill="#980000"/>
  <path fill="#8B4D4B" id="svg_17" fill-rule="evenodd" d="m54.500001,60.00394l0,0c0,-13.53315 12.98727,-24.50394 29.00787,-24.50394l0,0c16.0206,0 29.00788,10.97079 29.00788,24.50394l0,0c0,13.53316 -12.98728,24.50394 -29.00788,24.50394l0,0c-16.0206,0 -29.00787,-10.97078 -29.00787,-24.50394z" stroke-linejoin="round" stroke="#FFAFCC"/>
 </g>
</svg>