<svg xmlns:xlink="http://www.w3.org/1999/xlink" xmlns="http://www.w3.org/2000/svg" version="1.1" fill="none" stroke="none" stroke-linecap="square" stroke-miterlimit="10" width="440.4494324231323" height="197.75280252337961" style=""><rect id="backgroundrect" width="100%" height="100%" x="0" y="0" fill="none" stroke="none"/><clipPath id="p.0"><path d="m0 0l800.0 0l0 600.0l-800.0 0l0 -600.0z" clip-rule="nonzero" id="svg_1"/></clipPath><g class="currentLayer" style=""><title>Layer 1</title><g clip-path="url(#p.0)" id="svg_2" class="selected"><path fill="#000000" fill-opacity="0.0" d="m0 0l800.0 0l0 600.0l-800.0 0z" fill-rule="evenodd" id="svg_3"/><path fill="#38761d" d="m0 1.3779528l436.97638 0l0 193.88976l-436.97638 0z" fill-rule="evenodd" id="svg_4"/><path stroke="#000000" stroke-width="1.0" stroke-linejoin="round" stroke-linecap="butt" d="m0 1.3779528l436.97638 0l0 193.88976l-436.97638 0z" fill-rule="evenodd" id="svg_5"/><path fill="#000000" d="m3.472441 10.062992l0 0c0 -3.2615242 3.1093295 -5.905512 6.9448824 -5.905512l0 0c3.8355522 0 6.9448824 2.6439877 6.9448824 5.905512l0 0c0 3.2615242 -3.1093302 5.905512 -6.9448824 5.905512l0 0c-3.8355527 0 -6.9448824 -2.6439877 -6.9448824 -5.905512z" fill-rule="evenodd" id="svg_6"/><path stroke="#bf9000" stroke-width="4.0" stroke-linejoin="round" stroke-linecap="butt" d="m3.472441 10.062992l0 0c0 -3.2615242 3.1093295 -5.905512 6.9448824 -5.905512l0 0c3.8355522 0 6.9448824 2.6439877 6.9448824 5.905512l0 0c0 3.2615242 -3.1093302 5.905512 -6.9448824 5.905512l0 0c-3.8355527 0 -6.9448824 -2.6439877 -6.9448824 -5.905512z" fill-rule="evenodd" id="svg_7"/><path fill="#000000" d="m3.472441 186.47769l0 0c0 -3.2615204 3.1093295 -5.9055176 6.9448824 -5.9055176l0 0c3.8355522 0 6.9448824 2.6439972 6.9448824 5.9055176l0 0c0 3.2615204 -3.1093302 5.9055176 -6.9448824 5.9055176l0 0c-3.8355527 0 -6.9448824 -2.6439972 -6.9448824 -5.9055176z" fill-rule="evenodd" id="svg_8"/><path stroke="#bf9000" stroke-width="4.0" stroke-linejoin="round" stroke-linecap="butt" d="m3.472441 186.47769l0 0c0 -3.2615204 3.1093295 -5.9055176 6.9448824 -5.9055176l0 0c3.8355522 0 6.9448824 2.6439972 6.9448824 5.9055176l0 0c0 3.2615204 -3.1093302 5.9055176 -6.9448824 5.9055176l0 0c-3.8355527 0 -6.9448824 -2.6439972 -6.9448824 -5.9055176z" fill-rule="evenodd" id="svg_9"/><path fill="#000000" d="m419.4987 10.062992l0 0c0 -3.2615242 3.1093445 -5.905512 6.9448853 -5.905512l0 0c3.8355408 0 6.9448853 2.6439877 6.9448853 5.905512l0 0c0 3.2615242 -3.1093445 5.905512 -6.9448853 5.905512l0 0c-3.8355408 0 -6.9448853 -2.6439877 -6.9448853 -5.905512z" fill-rule="evenodd" id="svg_10"/><path stroke="#bf9000" stroke-width="4.0" stroke-linejoin="round" stroke-linecap="butt" d="m419.4987 10.062992l0 0c0 -3.2615242 3.1093445 -5.905512 6.9448853 -5.905512l0 0c3.8355408 0 6.9448853 2.6439877 6.9448853 5.905512l0 0c0 3.2615242 -3.1093445 5.905512 -6.9448853 5.905512l0 0c-3.8355408 0 -6.9448853 -2.6439877 -6.9448853 -5.905512z" fill-rule="evenodd" id="svg_11"/><path fill="#000000" d="m419.4987 186.47769l0 0c0 -3.2615204 3.1093445 -5.9055176 6.9448853 -5.9055176l0 0c3.8355408 0 6.9448853 2.6439972 6.9448853 5.9055176l0 0c0 3.2615204 -3.1093445 5.9055176 -6.9448853 5.9055176l0 0c-3.8355408 0 -6.9448853 -2.6439972 -6.9448853 -5.9055176z" fill-rule="evenodd" id="svg_12"/><path stroke="#bf9000" stroke-width="4.0" stroke-linejoin="round" stroke-linecap="butt" d="m419.4987 186.47769l0 0c0 -3.2615204 3.1093445 -5.9055176 6.9448853 -5.9055176l0 0c3.8355408 0 6.9448853 2.6439972 6.9448853 5.9055176l0 0c0 3.2615204 -3.1093445 5.9055176 -6.9448853 5.9055176l0 0c-3.8355408 0 -6.9448853 -2.6439972 -6.9448853 -5.9055176z" fill-rule="evenodd" id="svg_13"/><path fill="#bf9000" d="m142.56168 0l0 10.062992l0 0c0 5.557637 -2.643982 10.062992 -5.9055023 10.062992c-3.2615356 0 -5.9055176 -4.505355 -5.9055176 -10.062992l0 -10.062992z" fill-rule="evenodd" id="svg_14"/><path stroke="#000000" stroke-width="1.0" stroke-linejoin="round" stroke-linecap="butt" d="m142.56168 0l0 10.062992l0 0c0 5.557637 -2.643982 10.062992 -5.9055023 10.062992c-3.2615356 0 -5.9055176 -4.505355 -5.9055176 -10.062992l0 -10.062992z" fill-rule="evenodd" id="svg_15"/><path fill="#000000" d="m133.53806 10.062992l0 0c0 -1.148056 1.3960266 -2.0787401 3.1181183 -2.0787401l0 0c1.7220764 0 3.118103 0.9306841 3.118103 2.0787401l0 0c0 1.148057 -1.3960266 2.0787401 -3.118103 2.0787401l0 0c-1.7220917 0 -3.1181183 -0.93068314 -3.1181183 -2.0787401z" fill-rule="evenodd" id="svg_16"/><path stroke="#000000" stroke-width="1.0" stroke-linejoin="round" stroke-linecap="butt" d="m133.53806 10.062992l0 0c0 -1.148056 1.3960266 -2.0787401 3.1181183 -2.0787401l0 0c1.7220764 0 3.118103 0.9306841 3.118103 2.0787401l0 0c0 1.148057 -1.3960266 2.0787401 -3.118103 2.0787401l0 0c-1.7220917 0 -3.1181183 -0.93068314 -3.1181183 -2.0787401z" fill-rule="evenodd" id="svg_17"/><path fill="#bf9000" d="m159.2546 0l0 10.062992l0 0c0 5.557637 -2.643982 10.062992 -5.9055176 10.062992c-3.2615204 0 -5.9055023 -4.505355 -5.9055023 -10.062992l0 -10.062992z" fill-rule="evenodd" id="svg_18"/><path stroke="#000000" stroke-width="1.0" stroke-linejoin="round" stroke-linecap="butt" d="m159.2546 0l0 10.062992l0 0c0 5.557637 -2.643982 10.062992 -5.9055176 10.062992c-3.2615204 0 -5.9055023 -4.505355 -5.9055023 -10.062992l0 -10.062992z" fill-rule="evenodd" id="svg_19"/><path fill="#000000" d="m150.23097 10.062992l0 0c0 -1.148056 1.3960266 -2.0787401 3.118103 -2.0787401l0 0c1.7220917 0 3.1181183 0.9306841 3.1181183 2.0787401l0 0c0 1.148057 -1.3960266 2.0787401 -3.1181183 2.0787401l0 0c-1.7220764 0 -3.118103 -0.93068314 -3.118103 -2.0787401z" fill-rule="evenodd" id="svg_20"/><path stroke="#000000" stroke-width="1.0" stroke-linejoin="round" stroke-linecap="butt" d="m150.23097 10.062992l0 0c0 -1.148056 1.3960266 -2.0787401 3.118103 -2.0787401l0 0c1.7220917 0 3.1181183 0.9306841 3.1181183 2.0787401l0 0c0 1.148057 -1.3960266 2.0787401 -3.1181183 2.0787401l0 0c-1.7220764 0 -3.118103 -0.93068314 -3.118103 -2.0787401z" fill-rule="evenodd" id="svg_21"/><path fill="#bf9000" d="m175.94751 0l0 10.062992l0 0c0 5.557637 -2.6439972 10.062992 -5.9055176 10.062992c-3.2615204 0 -5.9055023 -4.505355 -5.9055023 -10.062992l0 -10.062992z" fill-rule="evenodd" id="svg_22"/><path stroke="#000000" stroke-width="1.0" stroke-linejoin="round" stroke-linecap="butt" d="m175.94751 0l0 10.062992l0 0c0 5.557637 -2.6439972 10.062992 -5.9055176 10.062992c-3.2615204 0 -5.9055023 -4.505355 -5.9055023 -10.062992l0 -10.062992z" fill-rule="evenodd" id="svg_23"/><path fill="#000000" d="m166.92389 10.062992l0 0c0 -1.148056 1.3960266 -2.0787401 3.118103 -2.0787401l0 0c1.7220917 0 3.1181183 0.9306841 3.1181183 2.0787401l0 0c0 1.148057 -1.3960266 2.0787401 -3.1181183 2.0787401l0 0c-1.7220764 0 -3.118103 -0.93068314 -3.118103 -2.0787401z" fill-rule="evenodd" id="svg_24"/><path stroke="#000000" stroke-width="1.0" stroke-linejoin="round" stroke-linecap="butt" d="m166.92389 10.062992l0 0c0 -1.148056 1.3960266 -2.0787401 3.118103 -2.0787401l0 0c1.7220917 0 3.1181183 0.9306841 3.1181183 2.0787401l0 0c0 1.148057 -1.3960266 2.0787401 -3.1181183 2.0787401l0 0c-1.7220764 0 -3.118103 -0.93068314 -3.118103 -2.0787401z" fill-rule="evenodd" id="svg_25"/><path fill="#bf9000" d="m192.64043 0l0 10.062992l0 0c0 5.557637 -2.6439972 10.062992 -5.9055176 10.062992c-3.2615204 0 -5.9055176 -4.505355 -5.9055176 -10.062992l0 -10.062992z" fill-rule="evenodd" id="svg_26"/><path stroke="#000000" stroke-width="1.0" stroke-linejoin="round" stroke-linecap="butt" d="m192.64043 0l0 10.062992l0 0c0 5.557637 -2.6439972 10.062992 -5.9055176 10.062992c-3.2615204 0 -5.9055176 -4.505355 -5.9055176 -10.062992l0 -10.062992z" fill-rule="evenodd" id="svg_27"/><path fill="#000000" d="m183.61679 10.062992l0 0c0 -1.148056 1.3960266 -2.0787401 3.1181183 -2.0787401l0 0c1.7220764 0 3.118103 0.9306841 3.118103 2.0787401l0 0c0 1.148057 -1.3960266 2.0787401 -3.118103 2.0787401l0 0c-1.7220917 0 -3.1181183 -0.93068314 -3.1181183 -2.0787401z" fill-rule="evenodd" id="svg_28"/><path stroke="#000000" stroke-width="1.0" stroke-linejoin="round" stroke-linecap="butt" d="m183.61679 10.062992l0 0c0 -1.148056 1.3960266 -2.0787401 3.1181183 -2.0787401l0 0c1.7220764 0 3.118103 0.9306841 3.118103 2.0787401l0 0c0 1.148057 -1.3960266 2.0787401 -3.118103 2.0787401l0 0c-1.7220917 0 -3.1181183 -0.93068314 -3.1181183 -2.0787401z" fill-rule="evenodd" id="svg_29"/><path fill="#bf9000" d="m209.33333 0l0 10.062992l0 0c0 5.557637 -2.643982 10.062992 -5.9055023 10.062992c-3.2615356 0 -5.9055176 -4.505355 -5.9055176 -10.062992l0 -10.062992z" fill-rule="evenodd" id="svg_30"/><path stroke="#000000" stroke-width="1.0" stroke-linejoin="round" stroke-linecap="butt" d="m209.33333 0l0 10.062992l0 0c0 5.557637 -2.643982 10.062992 -5.9055023 10.062992c-3.2615356 0 -5.9055176 -4.505355 -5.9055176 -10.062992l0 -10.062992z" fill-rule="evenodd" id="svg_31"/><path fill="#000000" d="m200.30971 10.062992l0 0c0 -1.148056 1.3960266 -2.0787401 3.1181183 -2.0787401l0 0c1.7220764 0 3.118103 0.9306841 3.118103 2.0787401l0 0c0 1.148057 -1.3960266 2.0787401 -3.118103 2.0787401l0 0c-1.7220917 0 -3.1181183 -0.93068314 -3.1181183 -2.0787401z" fill-rule="evenodd" id="svg_32"/><path stroke="#000000" stroke-width="1.0" stroke-linejoin="round" stroke-linecap="butt" d="m200.30971 10.062992l0 0c0 -1.148056 1.3960266 -2.0787401 3.1181183 -2.0787401l0 0c1.7220764 0 3.118103 0.9306841 3.118103 2.0787401l0 0c0 1.148057 -1.3960266 2.0787401 -3.118103 2.0787401l0 0c-1.7220917 0 -3.1181183 -0.93068314 -3.1181183 -2.0787401z" fill-rule="evenodd" id="svg_33"/><path fill="#bf9000" d="m226.02625 0l0 10.062992l0 0c0 5.557637 -2.643982 10.062992 -5.9055176 10.062992c-3.2615204 0 -5.9055023 -4.505355 -5.9055023 -10.062992l0 -10.062992z" fill-rule="evenodd" id="svg_34"/><path stroke="#000000" stroke-width="1.0" stroke-linejoin="round" stroke-linecap="butt" d="m226.02625 0l0 10.062992l0 0c0 5.557637 -2.643982 10.062992 -5.9055176 10.062992c-3.2615204 0 -5.9055023 -4.505355 -5.9055023 -10.062992l0 -10.062992z" fill-rule="evenodd" id="svg_35"/><path fill="#000000" d="m217.00262 10.062992l0 0c0 -1.148056 1.3960266 -2.0787401 3.118103 -2.0787401l0 0c1.7220917 0 3.1181183 0.9306841 3.1181183 2.0787401l0 0c0 1.148057 -1.3960266 2.0787401 -3.1181183 2.0787401l0 0c-1.7220764 0 -3.118103 -0.93068314 -3.118103 -2.0787401z" fill-rule="evenodd" id="svg_36"/><path stroke="#000000" stroke-width="1.0" stroke-linejoin="round" stroke-linecap="butt" d="m217.00262 10.062992l0 0c0 -1.148056 1.3960266 -2.0787401 3.118103 -2.0787401l0 0c1.7220917 0 3.1181183 0.9306841 3.1181183 2.0787401l0 0c0 1.148057 -1.3960266 2.0787401 -3.1181183 2.0787401l0 0c-1.7220764 0 -3.118103 -0.93068314 -3.118103 -2.0787401z" fill-rule="evenodd" id="svg_37"/><path fill="#bf9000" d="m42.404198 0l0 10.062992l0 0c0 5.557637 -2.6439857 10.062992 -5.90551 10.062992c-3.2615242 0 -5.905512 -4.505355 -5.905512 -10.062992l0 -10.062992z" fill-rule="evenodd" id="svg_38"/><path stroke="#000000" stroke-width="1.0" stroke-linejoin="round" stroke-linecap="butt" d="m42.404198 0l0 10.062992l0 0c0 5.557637 -2.6439857 10.062992 -5.90551 10.062992c-3.2615242 0 -5.905512 -4.505355 -5.905512 -10.062992l0 -10.062992z" fill-rule="evenodd" id="svg_39"/><path fill="#000000" d="m33.380577 10.062992l0 0c0 -1.148056 1.3960266 -2.0787401 3.1181107 -2.0787401l0 0c1.722084 0 3.1181107 0.9306841 3.1181107 2.0787401l0 0c0 1.148057 -1.3960266 2.0787401 -3.1181107 2.0787401l0 0c-1.722084 0 -3.1181107 -0.93068314 -3.1181107 -2.0787401z" fill-rule="evenodd" id="svg_40"/><path stroke="#000000" stroke-width="1.0" stroke-linejoin="round" stroke-linecap="butt" d="m33.380577 10.062992l0 0c0 -1.148056 1.3960266 -2.0787401 3.1181107 -2.0787401l0 0c1.722084 0 3.1181107 0.9306841 3.1181107 2.0787401l0 0c0 1.148057 -1.3960266 2.0787401 -3.1181107 2.0787401l0 0c-1.722084 0 -3.1181107 -0.93068314 -3.1181107 -2.0787401z" fill-rule="evenodd" id="svg_41"/><path fill="#bf9000" d="m59.097115 0l0 10.062992l0 0c0 5.557637 -2.6439896 10.062992 -5.905514 10.062992c-3.2615242 0 -5.90551 -4.505355 -5.90551 -10.062992l0 -10.062992z" fill-rule="evenodd" id="svg_42"/><path stroke="#000000" stroke-width="1.0" stroke-linejoin="round" stroke-linecap="butt" d="m59.097115 0l0 10.062992l0 0c0 5.557637 -2.6439896 10.062992 -5.905514 10.062992c-3.2615242 0 -5.90551 -4.505355 -5.90551 -10.062992l0 -10.062992z" fill-rule="evenodd" id="svg_43"/><path fill="#000000" d="m50.07349 10.062992l0 0c0 -1.148056 1.3960266 -2.0787401 3.1181107 -2.0787401l0 0c1.722084 0 3.1181107 0.9306841 3.1181107 2.0787401l0 0c0 1.148057 -1.3960266 2.0787401 -3.1181107 2.0787401l0 0c-1.722084 0 -3.1181107 -0.93068314 -3.1181107 -2.0787401z" fill-rule="evenodd" id="svg_44"/><path stroke="#000000" stroke-width="1.0" stroke-linejoin="round" stroke-linecap="butt" d="m50.07349 10.062992l0 0c0 -1.148056 1.3960266 -2.0787401 3.1181107 -2.0787401l0 0c1.722084 0 3.1181107 0.9306841 3.1181107 2.0787401l0 0c0 1.148057 -1.3960266 2.0787401 -3.1181107 2.0787401l0 0c-1.722084 0 -3.1181107 -0.93068314 -3.1181107 -2.0787401z" fill-rule="evenodd" id="svg_45"/><path fill="#bf9000" d="m75.79002 0l0 10.062992l0 0c0 5.557637 -2.643982 10.062992 -5.90551 10.062992c-3.2615204 0 -5.90551 -4.505355 -5.90551 -10.062992l0 -10.062992z" fill-rule="evenodd" id="svg_46"/><path stroke="#000000" stroke-width="1.0" stroke-linejoin="round" stroke-linecap="butt" d="m75.79002 0l0 10.062992l0 0c0 5.557637 -2.643982 10.062992 -5.90551 10.062992c-3.2615204 0 -5.90551 -4.505355 -5.90551 -10.062992l0 -10.062992z" fill-rule="evenodd" id="svg_47"/><path fill="#000000" d="m66.7664 10.062992l0 0c0 -1.148056 1.3960266 -2.0787401 3.1181107 -2.0787401l0 0c1.722084 0 3.1181107 0.9306841 3.1181107 2.0787401l0 0c0 1.148057 -1.3960266 2.0787401 -3.1181107 2.0787401l0 0c-1.722084 0 -3.1181107 -0.93068314 -3.1181107 -2.0787401z" fill-rule="evenodd" id="svg_48"/><path stroke="#000000" stroke-width="1.0" stroke-linejoin="round" stroke-linecap="butt" d="m66.7664 10.062992l0 0c0 -1.148056 1.3960266 -2.0787401 3.1181107 -2.0787401l0 0c1.722084 0 3.1181107 0.9306841 3.1181107 2.0787401l0 0c0 1.148057 -1.3960266 2.0787401 -3.1181107 2.0787401l0 0c-1.722084 0 -3.1181107 -0.93068314 -3.1181107 -2.0787401z" fill-rule="evenodd" id="svg_49"/><path fill="#bf9000" d="m92.48294 0l0 10.062992l0 0c0 5.557637 -2.6439896 10.062992 -5.90551 10.062992c-3.261528 0 -5.9055176 -4.505355 -5.9055176 -10.062992l0 -10.062992z" fill-rule="evenodd" id="svg_50"/><path stroke="#000000" stroke-width="1.0" stroke-linejoin="round" stroke-linecap="butt" d="m92.48294 0l0 10.062992l0 0c0 5.557637 -2.6439896 10.062992 -5.90551 10.062992c-3.261528 0 -5.9055176 -4.505355 -5.9055176 -10.062992l0 -10.062992z" fill-rule="evenodd" id="svg_51"/><path fill="#000000" d="m83.45932 10.062992l0 0c0 -1.148056 1.3960266 -2.0787401 3.1181107 -2.0787401l0 0c1.722084 0 3.1181107 0.9306841 3.1181107 2.0787401l0 0c0 1.148057 -1.3960266 2.0787401 -3.1181107 2.0787401l0 0c-1.722084 0 -3.1181107 -0.93068314 -3.1181107 -2.0787401z" fill-rule="evenodd" id="svg_52"/><path stroke="#000000" stroke-width="1.0" stroke-linejoin="round" stroke-linecap="butt" d="m83.45932 10.062992l0 0c0 -1.148056 1.3960266 -2.0787401 3.1181107 -2.0787401l0 0c1.722084 0 3.1181107 0.9306841 3.1181107 2.0787401l0 0c0 1.148057 -1.3960266 2.0787401 -3.1181107 2.0787401l0 0c-1.722084 0 -3.1181107 -0.93068314 -3.1181107 -2.0787401z" fill-rule="evenodd" id="svg_53"/><path fill="#bf9000" d="m109.17585 0l0 10.062992l0 0c0 5.557637 -2.643982 10.062992 -5.90551 10.062992c-3.2615204 0 -5.90551 -4.505355 -5.90551 -10.062992l0 -10.062992z" fill-rule="evenodd" id="svg_54"/><path stroke="#000000" stroke-width="1.0" stroke-linejoin="round" stroke-linecap="butt" d="m109.17585 0l0 10.062992l0 0c0 5.557637 -2.643982 10.062992 -5.90551 10.062992c-3.2615204 0 -5.90551 -4.505355 -5.90551 -10.062992l0 -10.062992z" fill-rule="evenodd" id="svg_55"/><path fill="#000000" d="m100.15223 10.062992l0 0c0 -1.148056 1.3960266 -2.0787401 3.1181107 -2.0787401l0 0c1.722084 0 3.1181107 0.9306841 3.1181107 2.0787401l0 0c0 1.148057 -1.3960266 2.0787401 -3.1181107 2.0787401l0 0c-1.722084 0 -3.1181107 -0.93068314 -3.1181107 -2.0787401z" fill-rule="evenodd" id="svg_56"/><path stroke="#000000" stroke-width="1.0" stroke-linejoin="round" stroke-linecap="butt" d="m100.15223 10.062992l0 0c0 -1.148056 1.3960266 -2.0787401 3.1181107 -2.0787401l0 0c1.722084 0 3.1181107 0.9306841 3.1181107 2.0787401l0 0c0 1.148057 -1.3960266 2.0787401 -3.1181107 2.0787401l0 0c-1.722084 0 -3.1181107 -0.93068314 -3.1181107 -2.0787401z" fill-rule="evenodd" id="svg_57"/><path fill="#bf9000" d="m125.86877 0l0 10.062992l0 0c0 5.557637 -2.6439896 10.062992 -5.90551 10.062992c-3.261528 0 -5.9055176 -4.505355 -5.9055176 -10.062992l0 -10.062992z" fill-rule="evenodd" id="svg_58"/><path stroke="#000000" stroke-width="1.0" stroke-linejoin="round" stroke-linecap="butt" d="m125.86877 0l0 10.062992l0 0c0 5.557637 -2.6439896 10.062992 -5.90551 10.062992c-3.261528 0 -5.9055176 -4.505355 -5.9055176 -10.062992l0 -10.062992z" fill-rule="evenodd" id="svg_59"/><path fill="#000000" d="m116.845146 10.062992l0 0c0 -1.148056 1.3960266 -2.0787401 3.1181107 -2.0787401l0 0c1.722084 0 3.1181107 0.9306841 3.1181107 2.0787401l0 0c0 1.148057 -1.3960266 2.0787401 -3.1181107 2.0787401l0 0c-1.722084 0 -3.1181107 -0.93068314 -3.1181107 -2.0787401z" fill-rule="evenodd" id="svg_60"/><path stroke="#000000" stroke-width="1.0" stroke-linejoin="round" stroke-linecap="butt" d="m116.845146 10.062992l0 0c0 -1.148056 1.3960266 -2.0787401 3.1181107 -2.0787401l0 0c1.722084 0 3.1181107 0.9306841 3.1181107 2.0787401l0 0c0 1.148057 -1.3960266 2.0787401 -3.1181107 2.0787401l0 0c-1.722084 0 -3.1181107 -0.93068314 -3.1181107 -2.0787401z" fill-rule="evenodd" id="svg_61"/><path fill="#bf9000" d="m242.71916 0l0 10.062992l0 0c0 5.557637 -2.6439972 10.062992 -5.9055176 10.062992c-3.2615204 0 -5.9055023 -4.505355 -5.9055023 -10.062992l0 -10.062992z" fill-rule="evenodd" id="svg_62"/><path stroke="#000000" stroke-width="1.0" stroke-linejoin="round" stroke-linecap="butt" d="m242.71916 0l0 10.062992l0 0c0 5.557637 -2.6439972 10.062992 -5.9055176 10.062992c-3.2615204 0 -5.9055023 -4.505355 -5.9055023 -10.062992l0 -10.062992z" fill-rule="evenodd" id="svg_63"/><path fill="#000000" d="m233.69554 10.062992l0 0c0 -1.148056 1.3960266 -2.0787401 3.118103 -2.0787401l0 0c1.7220917 0 3.1181183 0.9306841 3.1181183 2.0787401l0 0c0 1.148057 -1.3960266 2.0787401 -3.1181183 2.0787401l0 0c-1.7220764 0 -3.118103 -0.93068314 -3.118103 -2.0787401z" fill-rule="evenodd" id="svg_64"/><path stroke="#000000" stroke-width="1.0" stroke-linejoin="round" stroke-linecap="butt" d="m233.69554 10.062992l0 0c0 -1.148056 1.3960266 -2.0787401 3.118103 -2.0787401l0 0c1.7220917 0 3.1181183 0.9306841 3.1181183 2.0787401l0 0c0 1.148057 -1.3960266 2.0787401 -3.1181183 2.0787401l0 0c-1.7220764 0 -3.118103 -0.93068314 -3.118103 -2.0787401z" fill-rule="evenodd" id="svg_65"/><path fill="#bf9000" d="m259.41208 0l0 10.062992l0 0c0 5.557637 -2.643982 10.062992 -5.9055176 10.062992c-3.2615204 0 -5.9055176 -4.505355 -5.9055176 -10.062992l0 -10.062992z" fill-rule="evenodd" id="svg_66"/><path stroke="#000000" stroke-width="1.0" stroke-linejoin="round" stroke-linecap="butt" d="m259.41208 0l0 10.062992l0 0c0 5.557637 -2.643982 10.062992 -5.9055176 10.062992c-3.2615204 0 -5.9055176 -4.505355 -5.9055176 -10.062992l0 -10.062992z" fill-rule="evenodd" id="svg_67"/><path fill="#000000" d="m250.38846 10.062992l0 0c0 -1.148056 1.3960114 -2.0787401 3.118103 -2.0787401l0 0c1.7220917 0 3.118103 0.9306841 3.118103 2.0787401l0 0c0 1.148057 -1.3960114 2.0787401 -3.118103 2.0787401l0 0c-1.7220917 0 -3.118103 -0.93068314 -3.118103 -2.0787401z" fill-rule="evenodd" id="svg_68"/><path stroke="#000000" stroke-width="1.0" stroke-linejoin="round" stroke-linecap="butt" d="m250.38846 10.062992l0 0c0 -1.148056 1.3960114 -2.0787401 3.118103 -2.0787401l0 0c1.7220917 0 3.118103 0.9306841 3.118103 2.0787401l0 0c0 1.148057 -1.3960114 2.0787401 -3.118103 2.0787401l0 0c-1.7220917 0 -3.118103 -0.93068314 -3.118103 -2.0787401z" fill-rule="evenodd" id="svg_69"/><path fill="#bfff0c" d="m17.362206 59.168415l0 0c0 -12.080925 9.793526 -21.87445 21.87445 -21.87445l358.39282 0c5.8014526 0 11.365326 2.3046227 15.46756 6.4068794c4.1022644 4.102253 6.406891 9.666107 6.406891 15.467571l0 87.49519c0 12.080933 -9.793518 21.87445 -21.87445 21.87445l-358.39282 0c-12.080925 0 -21.87445 -9.793518 -21.87445 -21.87445z" fill-rule="evenodd" id="svg_70"/><path stroke="#000000" stroke-width="24.0" stroke-linejoin="round" stroke-linecap="butt" d="m17.362206 59.168415l0 0c0 -12.080925 9.793526 -21.87445 21.87445 -21.87445l358.39282 0c5.8014526 0 11.365326 2.3046227 15.46756 6.4068794c4.1022644 4.102253 6.406891 9.666107 6.406891 15.467571l0 87.49519c0 12.080933 -9.793518 21.87445 -21.87445 21.87445l-358.39282 0c-12.080925 0 -21.87445 -9.793518 -21.87445 -21.87445z" fill-rule="evenodd" id="svg_71"/><path fill="#a8e10b" d="m38.92126 58.88714l359.02362 0l0 88.88189l-359.02362 0z" fill-rule="evenodd" id="svg_72"/></g></g></svg>