<svg xmlns:xlink="http://www.w3.org/1999/xlink" xmlns="http://www.w3.org/2000/svg" version="1.1" fill="none" stroke="none" stroke-linecap="square" stroke-miterlimit="10" width="572.5572200920351" height="56" style=""><rect id="backgroundrect" width="100%" height="100%" x="0" y="0" fill="none" stroke="none" style="" class=""/><clipPath id="p.0"><path d="m0 0l1152.0 0l0 864.0l-1152.0 0l0 -864.0z" clip-rule="nonzero" id="svg_1"/></clipPath><g class="currentLayer" style=""><title>Layer 1</title><g clip-path="url(#p.0)" id="svg_2" class=""><path fill="#000000" fill-opacity="0.0" d="m-0.000005245208740234377,-15.690382480621338 l1152,0 l0,864 l-1152,0 z" fill-rule="evenodd" id="svg_3"/><path fill="#000000" d="m7.74802635479125,8.06814751937867 l563.2441,0 l0,41.007874 l-563.2441,0 z" fill-rule="evenodd" id="svg_4"/><path stroke="#cccccc" stroke-width="8.0" stroke-linejoin="round" stroke-linecap="butt" d="m7.74802635479125,8.06814751937867 l563.2441,0 l0,41.007874 l-563.2441,0 z" fill-rule="evenodd" id="svg_5"/><path fill="#d9d9d9" d="m7.74802635479125,25.11674751937869 l563.2441,0 l0,6.9291344 l-563.2441,0 z" fill-rule="evenodd" id="svg_6"/><path fill="#000000" d="m14.768439754791245,28.56332551937868 l0,0 c0,-1.148056 2.6087350000000002,-2.0787392000000002 5.8267717,-2.0787392000000002 l0,0 c3.2180367,0 5.826771,0.93068314 5.826771,2.0787392000000002 l0,0 c0,1.148056 -2.6087341,2.0787392000000002 -5.826771,2.0787392000000002 l0,0 c-3.2180367,0 -5.8267717,-0.93068314 -5.8267717,-2.0787392000000002 z" fill-rule="evenodd" id="svg_7"/><path stroke="#000000" stroke-width="1.0" stroke-linejoin="round" stroke-linecap="butt" d="m14.768439754791245,28.56332551937868 l0,0 c0,-1.148056 2.6087350000000002,-2.0787392000000002 5.8267717,-2.0787392000000002 l0,0 c3.2180367,0 5.826771,0.93068314 5.826771,2.0787392000000002 l0,0 c0,1.148056 -2.6087341,2.0787392000000002 -5.826771,2.0787392000000002 l0,0 c-3.2180367,0 -5.8267717,-0.93068314 -5.8267717,-2.0787392000000002 z" fill-rule="evenodd" id="svg_8"/><path fill="#000000" d="m552.3315347547913,28.565053519378694 l0,0 c0,-1.148056 2.6087036,-2.0787392000000002 5.826721,-2.0787392000000002 l0,0 c3.2180786,0 5.826782,0.93068314 5.826782,2.0787392000000002 l0,0 c0,1.148056 -2.6087036,2.0787392000000002 -5.826782,2.0787392000000002 l0,0 c-3.2180176,0 -5.826721,-0.93068314 -5.826721,-2.0787392000000002 z" fill-rule="evenodd" id="svg_9"/><path stroke="#000000" stroke-width="1.0" stroke-linejoin="round" stroke-linecap="butt" d="m552.3315347547913,28.565053519378694 l0,0 c0,-1.148056 2.6087036,-2.0787392000000002 5.826721,-2.0787392000000002 l0,0 c3.2180786,0 5.826782,0.93068314 5.826782,2.0787392000000002 l0,0 c0,1.148056 -2.6087036,2.0787392000000002 -5.826782,2.0787392000000002 l0,0 c-3.2180176,0 -5.826721,-0.93068314 -5.826721,-2.0787392000000002 z" fill-rule="evenodd" id="svg_10"/></g></g></svg>