<?xml version="1.0" encoding="UTF-8" standalone="no"?>
<svg
   xmlns:dc="http://purl.org/dc/elements/1.1/"
   xmlns:cc="http://creativecommons.org/ns#"
   xmlns:rdf="http://www.w3.org/1999/02/22-rdf-syntax-ns#"
   xmlns:svg="http://www.w3.org/2000/svg"
   xmlns="http://www.w3.org/2000/svg"
   xmlns:sodipodi="http://sodipodi.sourceforge.net/DTD/sodipodi-0.dtd"
   xmlns:inkscape="http://www.inkscape.org/namespaces/inkscape"
   width="75"
   height="75"
   version="1.1"
   id="svg4716"
   sodipodi:docname="led_off.svg">
  <metadata
     id="metadata4722">
    <rdf:RDF>
      <cc:Work
         rdf:about="">
        <dc:format>image/svg+xml</dc:format>
        <dc:type
           rdf:resource="http://purl.org/dc/dcmitype/StillImage" />
        <dc:title></dc:title>
      </cc:Work>
    </rdf:RDF>
  </metadata>
  <defs
     id="defs4720" />
  <sodipodi:namedview
     pagecolor="#ffffff"
     bordercolor="#666666"
     borderopacity="1"
     objecttolerance="10"
     gridtolerance="10"
     guidetolerance="10"
     inkscape:pageopacity="0"
     inkscape:pageshadow="2"
     inkscape:window-width="640"
     inkscape:window-height="480"
     id="namedview4718"
     showgrid="false" />
  <clipPath
     id="p.0">
    <path
       id="svg_1"
       d="M 0,0 H 800 V 600 H 0 Z"
       inkscape:connector-curvature="0"
       style="clip-rule:nonzero" />
  </clipPath>
  <g
     id="g4700"
     transform="translate(0,-23)">
    <title
       id="title4697">background</title>
    <rect
       id="canvas_background"
       height="100"
       width="224"
       y="-1"
       x="-1"
       style="fill:none" />
  </g>
  <g
     id="g4714"
     transform="translate(0,-23)">
    <title
       id="title4702">Layer 1</title>
    <g
       id="svg_2"
       clip-path="url(#p.0)">
      <path
         id="svg_3"
         d="M -113,-346 H 687 V 254 H -113 Z"
         inkscape:connector-curvature="0"
         style="fill:#000000;fill-opacity:0;fill-rule:evenodd" />
      <path
         id="svg_4"
         d="m 142.17455,4.00787 h 75.83333 c -8.37631,0 -15.16666,20.147186 -15.16666,45 0,24.852814 6.79035,45 15.16666,45 h -75.83333 v 0 c -8.37633,0 -15.16667,-20.147186 -15.16667,-45 0,-24.852814 6.79034,-45 15.16667,-45 z"
         inkscape:connector-curvature="0"
         style="fill:#999999;fill-rule:evenodd" />
      <path
         id="svg_5"
         d="m 142.17455,4.00787 h 75.83333 c -8.37631,0 -15.16666,20.147186 -15.16666,45 0,24.852814 6.79035,45 15.16666,45 h -75.83333 v 0 c -8.37633,0 -15.16667,-20.147186 -15.16667,-45 0,-24.852814 6.79034,-45 15.16667,-45 z"
         inkscape:connector-curvature="0"
         style="fill:#bbbbbb;fill-rule:evenodd;stroke:#000000;stroke-linejoin:round" />
      <path
         id="svg_6"
         d="M 79.83727,94 H 4.00394 C 12.38026,94 19.170612,73.852814 19.170612,49 19.170612,24.147186 12.38026,4 4.00394,4 h 75.83333 v 0 c 8.376327,0 15.166672,20.147186 15.166672,45 0,24.852814 -6.790344,45 -15.166672,45 z"
         inkscape:connector-curvature="0"
         style="fill:#999999;fill-rule:evenodd" />
      <path
         id="svg_7"
         d="M 79.83727,94 H 4.00394 C 12.38026,94 19.170612,73.852814 19.170612,49 19.170612,24.147186 12.38026,4 4.00394,4 h 75.83333 v 0 c 8.376327,0 15.166672,20.147186 15.166672,45 0,24.852814 -6.790344,45 -15.166672,45 z"
         inkscape:connector-curvature="0"
         style="fill:#bbbbbb;fill-rule:evenodd;stroke:#000000;stroke-linejoin:round" />
      <path
         id="svg_8"
         d="M 38.00787,4 H 188.02362 V 94.01575 H 38.00787 Z"
         inkscape:connector-curvature="0"
         style="fill:#ffffff;fill-rule:evenodd" />
      <path
         id="svg_9"
         d="M 38.00787,4 H 188.02362 V 94.01575 H 38.00787 Z"
         inkscape:connector-curvature="0"
         style="fill:#ffffff;fill-rule:evenodd;stroke:#000000;stroke-linejoin:round" />
      <path
         id="svg_10"
         d="m 168.02362,4 h 20 v 9.007874 h -20 z"
         inkscape:connector-curvature="0"
         style="fill:#38761d;fill-rule:evenodd" />
      <path
         id="svg_11"
         d="M 60.49606,13.50394 H 165.53543 V 84.49607 H 60.49606 Z"
         inkscape:connector-curvature="0"
         style="fill:#dddddd;fill-rule:evenodd" />
    </g>
  </g>
</svg>
