<svg xmlns:xlink="http://www.w3.org/1999/xlink" xmlns="http://www.w3.org/2000/svg" version="1.1" fill="none" stroke="none" stroke-linecap="square" stroke-miterlimit="10" width="30.585149982301118" height="65.58514998230089"><rect id="backgroundrect" width="100%" height="100%" x="0" y="0" fill="none" stroke="none" style="" class=""/><clipPath id="p.0"><path d="m0 0l1152.0 0l0 864.0l-1152.0 0l0 -864.0z" clip-rule="nonzero" id="svg_1"/></clipPath><g class="currentLayer" style=""><title>Layer 1</title><g clip-path="url(#p.0)" id="svg_2" class=""><path fill="#000000" fill-opacity="0.0" d="m-4.48297119140625,8.9659423828125 l764.2230606079102,0 l0,538.9846572875977 l-764.2230606079102,0 z" fill-rule="evenodd" id="svg_3"/><path fill="#666666" d="m7.209896376914969,14.825147275511739 l14.432607903988659,0 l0,42.257994122924806 l-14.432607903988659,0 z" fill-rule="evenodd" id="svg_4"/><path fill="#848484" d="m4.80446183681488,12.563168405638692 l19.243477647576928,0 l-2.4054346727777123,2.2619789946380138 l-14.432607903988659,0 z" fill-rule="evenodd" id="svg_5"/><path fill="#515151" d="m4.80446183681488,59.34511902065992 l2.4054346727777123,-2.2619789946380138 l14.432607903988659,0 l2.4054346727777123,2.2619789946380138 z" fill-rule="evenodd" id="svg_6"/><path fill="#a3a3a3" d="m4.80446183681488,12.563168405638692 l2.4054346727777123,2.2619789946380138 l0,42.257994122924806 l-2.4054346727777123,2.2619789946380138 z" fill-rule="evenodd" id="svg_7"/><path fill="#3d3d3d" d="m24.047939484391804,12.563168405638692 l0,46.78195311032057 l-2.4054346727777123,-2.2619789946380138 l0,-42.257994122924806 z" fill-rule="evenodd" id="svg_8"/><path fill="#000000" fill-opacity="0.0" d="m4.80446183681488,12.563168405638692 l19.243477647576928,0 l0,46.78195311032057 l-19.243477647576928,0 zm2.4054346727777123,2.2619789946380138 l14.432607903988659,0 l0,42.257994122924806 l-14.432607903988659,0 zm-2.4054346727777123,-2.2619789946380138 l2.4054346727777123,2.2619789946380138 m-2.4054346727777123,44.51997049749851 l2.4054346727777123,-2.2619789946380138 m16.838043107476828,-44.51997049749851 l-2.4054346727777123,2.2619789946380138 m2.4054346727777123,44.51997049749851 l-2.4054346727777123,-2.2619789946380138 " fill-rule="evenodd" id="svg_9"/><path stroke="#000000" stroke-width="1.0" stroke-linejoin="round" stroke-linecap="butt" d="m4.80446183681488,12.563168405638692 l19.243477647576928,0 l0,46.78195311032057 l-19.243477647576928,0 zm2.4054346727777123,2.2619789946380138 l14.432607903988659,0 l0,42.257994122924806 l-14.432607903988659,0 zm-2.4054346727777123,-2.2619789946380138 l2.4054346727777123,2.2619789946380138 m-2.4054346727777123,44.51997049749851 l2.4054346727777123,-2.2619789946380138 m16.838043107476828,-44.51997049749851 l-2.4054346727777123,2.2619789946380138 m2.4054346727777123,44.51997049749851 l-2.4054346727777123,-2.2619789946380138 " fill-rule="evenodd" id="svg_10"/><path fill="#ffffff" d="m7.362393373686075,36.82899566150594 l14.103526952887774,0 l0,-1.7486747105007654 l-14.103526952887774,0 z" fill-rule="evenodd" id="svg_11"/><path stroke="#000000" stroke-width="1.0" stroke-linejoin="round" stroke-linecap="butt" d="m7.362393373686075,36.82899566150594 l14.103526952887774,0 l0,-1.7486747105007654 l-14.103526952887774,0 z" fill-rule="evenodd" id="svg_12"/></g></g></svg>