<svg xmlns:xlink="http://www.w3.org/1999/xlink" xmlns="http://www.w3.org/2000/svg" version="1.1" fill="none" stroke="none" stroke-linecap="square" stroke-miterlimit="10" width="98.48297000353978" height="65"><rect id="backgroundrect" width="100%" height="100%" x="0" y="0" fill="none" stroke="none" style="" class=""/><clipPath id="p.0"><path d="m0 0l1152.0 0l0 864.0l-1152.0 0l0 -864.0z" clip-rule="nonzero" id="svg_1"/></clipPath><g class="currentLayer" style=""><title>Layer 1</title><g clip-path="url(#p.0)" id="svg_2" class="selected"><path fill="#000000" fill-opacity="0.0" d="m-107.59127759933472,-109.832763671875 l1152,0 l0,864 l-1152,0 z" fill-rule="evenodd" id="svg_3"/><path fill="#00ff00" d="m7.42447240066528,19.48567632812501 l77.98425,0 l0,25.984238 l-77.98425,0 z" fill-rule="evenodd" id="svg_4"/><path stroke="#999999" stroke-width="8.0" stroke-linejoin="round" stroke-linecap="butt" d="m7.42447240066528,19.48567632812501 l77.98425,0 l0,25.984238 l-77.98425,0 z" fill-rule="evenodd" id="svg_5"/><path fill="#666666" d="m54.32082240066529,10.917892328124992 l26.645676,0 l0,43.118103 l-26.645676,0 z" fill-rule="evenodd" id="svg_6"/><path fill="#848484" d="m49.87987240066528,6.4769463281249955 l35.527557,0 l-4.440933,4.4409485 l-26.645676,0 z" fill-rule="evenodd" id="svg_7"/><path fill="#515151" d="m49.87987240066528,58.476946328124995 l4.4409485,-4.4409485 l26.645676,0 l4.440933,4.4409485 z" fill-rule="evenodd" id="svg_8"/><path fill="#a3a3a3" d="m49.87987240066528,6.4769463281249955 l4.4409485,4.4409485 l0,43.118103 l-4.4409485,4.4409485 z" fill-rule="evenodd" id="svg_9"/><path fill="#3d3d3d" d="m85.4074224006653,6.4769463281249955 l0,52 l-4.440933,-4.4409485 l0,-43.118103 z" fill-rule="evenodd" id="svg_10"/><path fill="#000000" fill-opacity="0.0" d="m49.87987240066528,6.4769463281249955 l35.527557,0 l0,52 l-35.527557,0 zm4.4409485,4.4409485 l26.645676,0 l0,43.118103 l-26.645676,0 zm-4.4409485,-4.4409485 l4.4409485,4.4409485 m-4.4409485,47.55905 l4.4409485,-4.4409485 m31.086609,-47.55905 l-4.440933,4.4409485 m4.440933,47.55905 l-4.440933,-4.4409485 " fill-rule="evenodd" id="svg_11"/><path stroke="#000000" stroke-width="1.0" stroke-linejoin="round" stroke-linecap="butt" d="m49.87987240066528,6.4769463281249955 l35.527557,0 l0,52 l-35.527557,0 zm4.4409485,4.4409485 l26.645676,0 l0,43.118103 l-26.645676,0 zm-4.4409485,-4.4409485 l4.4409485,4.4409485 m-4.4409485,47.55905 l4.4409485,-4.4409485 m31.086609,-47.55905 l-4.440933,4.4409485 m4.440933,47.55905 l-4.440933,-4.4409485 " fill-rule="evenodd" id="svg_12"/></g></g></svg>