<?xml version="1.0" encoding="UTF-8" standalone="no"?>
<svg
   xmlns:dc="http://purl.org/dc/elements/1.1/"
   xmlns:cc="http://creativecommons.org/ns#"
   xmlns:rdf="http://www.w3.org/1999/02/22-rdf-syntax-ns#"
   xmlns:svg="http://www.w3.org/2000/svg"
   xmlns="http://www.w3.org/2000/svg"
   xmlns:sodipodi="http://sodipodi.sourceforge.net/DTD/sodipodi-0.dtd"
   xmlns:inkscape="http://www.inkscape.org/namespaces/inkscape"
   version="1.1"
   viewBox="0 0 100 150"
   stroke-miterlimit="10"
   id="svg182"
   sodipodi:docname="display_7segs.svg"
   inkscape:version="0.92.3 (unknown)"
   width="100"
   height="150"
   style="fill:none;stroke:none;stroke-linecap:square;stroke-miterlimit:10">
  <metadata
     id="metadata188">
    <rdf:RDF>
      <cc:Work
         rdf:about="">
        <dc:format>image/svg+xml</dc:format>
        <dc:type
           rdf:resource="http://purl.org/dc/dcmitype/StillImage" />
        <dc:title></dc:title>
      </cc:Work>
    </rdf:RDF>
  </metadata>
  <defs
     id="defs186" />
  <sodipodi:namedview
     pagecolor="#ffffff"
     bordercolor="#666666"
     borderopacity="1"
     objecttolerance="10"
     gridtolerance="10"
     guidetolerance="10"
     inkscape:pageopacity="0"
     inkscape:pageshadow="2"
     inkscape:window-width="1920"
     inkscape:window-height="1019"
     id="namedview184"
     showgrid="false"
     inkscape:zoom="1.4142136"
     inkscape:cx="228.86943"
     inkscape:cy="-97.324362"
     inkscape:window-x="0"
     inkscape:window-y="1080"
     inkscape:window-maximized="1"
     inkscape:current-layer="g180" />
  <clipPath
     id="p.0">
    <path
       d="M 0,0 H 800 V 600 H 0 Z"
       id="path169"
       inkscape:connector-curvature="0"
       style="clip-rule:nonzero" />
  </clipPath>
  <g
     clip-path="url(#p.0)"
     id="g180"
     transform="translate(0,-450)">
    <path
       d="M 0,0 H 800 V 600 H 0 Z"
       id="path172"
       inkscape:connector-curvature="0"
       style="fill:#000000;fill-opacity:0;fill-rule:evenodd" />
    <path
       d="M 10.830229,451.3628 H 99.640651 V 594.81504 H 10.830229 Z"
       id="path174"
       inkscape:connector-curvature="0"
       style="fill:#f3f0e2;fill-rule:evenodd;stroke-width:0.39726076" />
    <path
       d="M 10.830229,451.3628 H 99.640651 V 594.81504 H 10.830229 Z"
       id="path176"
       inkscape:connector-curvature="0"
       style="fill-rule:evenodd;stroke:#000000;stroke-width:0.39726076;stroke-linecap:butt;stroke-linejoin:round" />
    <path
       d="M 0.7055518,456.54879 H 89.515974 V 600.00101 H 0.7055518 Z"
       id="path178"
       inkscape:connector-curvature="0"
       style="fill:#000000;fill-rule:evenodd;stroke-width:0.39726076" />
    <path
       style="fill:#f3f0e2;fill-opacity:1;stroke-width:0.03511323"
       d="m 89.5446,597.28504 v -2.2698 h 4.598249 c 2.736818,0 4.582898,0.0113 4.560328,0.0279 -0.02086,0.0153 -1.896979,0.94154 -4.169156,2.05823 -2.272183,1.1167 -4.32433,2.12555 -4.560327,2.24192 l -0.429094,0.21155 z"
       id="path206"
       inkscape:connector-curvature="0" />
    <path
       style="fill:#f3f0e2;fill-opacity:1;stroke-width:0.39726076"
       id="path210"
       d="m 89.62189,594.59284 c -9.02e-4,0.006 -0.0013,0.0123 -0.0013,0.0185 -1.62e-4,0.004 9.2e-5,0.008 -4.5e-4,0.0109 -4.52e-4,0.003 -9.04e-4,0.005 -0.0013,0.008 -1.54e-4,0.003 -1.5e-4,0.005 -1.54e-4,0.008 3.57e-4,0.003 9.04e-4,0.005 0.0013,0.008 3.17e-4,0.003 3.51e-4,0.005 3.84e-4,0.008 1.3e-5,0.003 5e-6,0.005 0,0.008 1.13e-4,0.003 -9.04e-4,0.005 -0.0013,0.008 -4.24e-4,0.003 -4.51e-4,0.005 -4.51e-4,0.008 2.22e-4,0.003 -4.38e-4,0.005 -9.03e-4,0.008 -4.52e-4,0.003 -4.52e-4,0.005 -9.02e-4,0.008 -4.53e-4,0.003 -0.0013,0.005 -0.0013,0.008 -6.8e-5,3.6e-4 -1.39e-4,7.1e-4 -2.11e-4,0.001 0,0 -0.02361,0.009 -0.02361,0.009 v 0 c 1.26e-4,-3.4e-4 2.49e-4,-7e-4 3.75e-4,-7.5e-4 2.07e-4,-0.003 4.51e-4,-0.005 0.0013,-0.008 4.54e-4,-0.003 2.76e-4,-0.005 9.03e-4,-0.008 4.51e-4,-0.003 0.0013,-0.005 0.0013,-0.008 3.2e-5,-0.003 7.2e-5,-0.005 4.19e-4,-0.008 3.9e-4,-0.003 0.0013,-0.005 0.0013,-0.008 0,-0.003 9e-6,-0.005 5e-6,-0.008 -1.4e-5,-0.003 -2.7e-5,-0.005 -2.76e-4,-0.008 -3.11e-4,-0.003 -9.03e-4,-0.005 -0.0013,-0.008 0,-0.003 -9e-6,-0.005 9.4e-5,-0.008 1.45e-4,-0.003 3.93e-4,-0.005 9.04e-4,-0.008 9.03e-4,-0.004 9.03e-4,-0.007 9.03e-4,-0.0107 3.34e-4,-0.006 9.03e-4,-0.0124 0.0013,-0.0185 0,0 0.02339,-0.009 0.02339,-0.009 z"
       inkscape:connector-curvature="0" />
    <rect
       style="fill:#f3f0e2;fill-opacity:1;stroke-width:0.39726076"
       id="rect216"
       width="0.19404277"
       height="0.48597804"
       x="89.516899"
       y="594.55731" />
    <rect
       style="fill:#f3f0e2;fill-opacity:1;stroke-width:1.2477107"
       id="rect225"
       width="0.5445227"
       height="1.3509678"
       x="632.79913"
       y="517.20416"
       transform="matrix(0.85608136,0.51684109,-0.85608136,0.51684109,0,0)" />
    <path
       style="fill:#f3f0e2;fill-opacity:1;stroke-width:0.0248288"
       d="m 89.729835,594.81966 v -0.16381 h 4.364771 4.364775 l -0.265178,0.16275 -0.265179,0.16273 -4.099592,7.6e-4 -4.099597,7.5e-4 z"
       id="path3930"
       inkscape:connector-curvature="0" />
    <path
       style="fill:#f3f0e2;fill-opacity:1;stroke-width:0.0248288"
       d="m 89.729835,594.82327 v -0.16742 h 4.351264 c 2.393194,0 4.345972,0.004 4.339503,0.009 -0.0065,0.004 -0.118614,0.0735 -0.249209,0.1529 l -0.23745,0.14431 -1.032648,2e-5 c -0.567957,10e-6 -2.413883,0.007 -4.102054,0.0145 l -3.069406,0.0145 z"
       id="path3932"
       inkscape:connector-curvature="0" />
    <rect
       style="fill:#f3f0e2;fill-opacity:1;stroke-width:0.39176464"
       id="rect3934"
       width="9.1824045"
       height="0.67430168"
       x="89.516899"
       y="594.36896" />
    <path
       style="fill:#f3f0e2;fill-opacity:1;stroke-width:0.07022646"
       d="m 5.7732936,454.19625 c 2.5169148,-1.29083 4.5915144,-2.34698 4.6102214,-2.34698 0.01871,0 0.03401,1.0564 0.03401,2.34755 v 2.34756 l -4.6102217,-6.9e-4 -4.6102213,-7e-4 4.5762084,-2.34699 z"
       id="path3936"
       inkscape:connector-curvature="0" />
  </g>
  <rect
     style="fill:#f3f0e2;fill-opacity:1;stroke-width:0.33982623"
     id="rect192"
     width="1.3992604"
     height="4.9560323"
     x="10.446025"
     y="1.584727" />
  <path
     style="fill:none;stroke:#000000;stroke-width:0.39726076px;stroke-linecap:butt;stroke-linejoin:miter;stroke-opacity:1"
     d="M 0.7055518,6.548791 C 10.830229,1.3628142 10.830229,1.3628142 10.830229,1.3628142"
     id="path194"
     inkscape:connector-curvature="0" />
  <path
     style="fill:none;stroke:#000000;stroke-width:0.46193251px;stroke-linecap:butt;stroke-linejoin:miter;stroke-opacity:1"
     d="M 87.867972,7.4273763 C 99.620303,1.3865926 99.620303,1.3865926 99.620303,1.3865926"
     id="path196"
     inkscape:connector-curvature="0" />
  <path
     style="fill:none;stroke:#000000;stroke-width:0.39419577px;stroke-linecap:butt;stroke-linejoin:miter;stroke-opacity:1"
     d="m 99.640651,144.81504 c -10.254504,5.04162 -10.254504,5.04162 -10.254504,5.04162"
     id="path198"
     inkscape:connector-curvature="0" />
</svg>
