<svg xmlns:xlink="http://www.w3.org/1999/xlink" xmlns="http://www.w3.org/2000/svg" version="1.1" fill="none" stroke="none" stroke-linecap="square" stroke-miterlimit="10" width="206.0433410013054" height="198.13002300391622" style=""><rect id="backgroundrect" width="100%" height="100%" x="0" y="0" fill="none" stroke="none" style="" class=""/><clipPath id="p.0"><path d="m0 0l800.0 0l0 600.0l-800.0 0l0 -600.0z" clip-rule="nonzero" id="svg_1"/></clipPath><g class="currentLayer" style=""><title>Layer 1</title><g clip-path="url(#p.0)" id="svg_2" class=""><path fill="#000000" fill-opacity="0.0" d="m32.78170842211614,-1.2608411312103271 l685.2639796323245,0 l0,523.0890780757463 l-685.2639796323245,0 z" fill-rule="evenodd" id="svg_3"/><path fill="#efefef" d="m58.07299966607877,2.4451214507523957 l118.06987013668261,0 l0,180.5944118493391 l-118.06987013668261,0 z" fill-rule="evenodd" id="svg_4"/><path stroke="#efefef" stroke-width="1.0" stroke-linejoin="round" stroke-linecap="butt" d="m58.07299966607877,2.4451214507523957 l118.06987013668261,0 l0,180.5944118493391 l-118.06987013668261,0 z" fill-rule="evenodd" id="svg_5"/><path fill="#000000" d="m36.96796842814257,15.760382441525266 l118.06987013668261,0 l0,180.59439441303653 l-118.06987013668261,0 z" fill-rule="evenodd" id="svg_6"/><path fill="#efefef" d="m58.058146569320286,15.760328388987205 l-20.748485305645662,0 l20.717539640905443,-13.529365971049469 z" fill-rule="evenodd" id="svg_7"/><path stroke="#efefef" stroke-width="1.0" stroke-linejoin="round" stroke-linecap="butt" d="m58.058146569320286,15.760328388987205 l-20.748485305645662,0 l20.717539640905443,-13.529365971049469 z" fill-rule="evenodd" id="svg_8"/><path fill="#efefef" d="m175.817270049159,15.760328388987205 l-20.748485305645662,0 l20.71754820670519,-13.529365971049469 z" fill-rule="evenodd" id="svg_9"/><path stroke="#efefef" stroke-width="1.0" stroke-linejoin="round" stroke-linecap="butt" d="m175.817270049159,15.760328388987205 l-20.748485305645662,0 l20.71754820670519,-13.529365971049469 z" fill-rule="evenodd" id="svg_10"/><path fill="#efefef" d="m155.03784764457282,183.03992709898577 l20.748485305645662,0 l-20.71754820670519,13.529364227419208 z" fill-rule="evenodd" id="svg_11"/><path stroke="#efefef" stroke-width="1.0" stroke-linejoin="round" stroke-linecap="butt" d="m155.03784764457282,183.03992709898577 l20.748485305645662,0 l-20.71754820670519,13.529364227419208 z" fill-rule="evenodd" id="svg_12"/><path fill="#000000" fill-opacity="0.0" d="m37.30966126367463,15.760328388987205 l20.717539640905443,-13.529365971049469 " fill-rule="evenodd" id="svg_13"/><path stroke="#000000" stroke-width="1.0" stroke-linejoin="round" stroke-linecap="butt" d="m37.30966126367463,15.760328388987205 l20.717539640905443,-13.529365971049469 " fill-rule="evenodd" id="svg_14"/><path fill="#000000" fill-opacity="0.0" d="m58.02720176116003,2.2309627666637866 l117.7604134892804,0 " fill-rule="evenodd" id="svg_15"/><path stroke="#000000" stroke-width="1.0" stroke-linejoin="round" stroke-linecap="butt" d="m58.02720176116003,2.2309627666637866 l117.7604134892804,0 " fill-rule="evenodd" id="svg_16"/><path fill="#000000" fill-opacity="0.0" d="m155.06878731325332,15.760328388987205 l20.71754820670519,-13.529365971049469 " fill-rule="evenodd" id="svg_17"/><path stroke="#000000" stroke-width="1.0" stroke-linejoin="round" stroke-linecap="butt" d="m155.06878731325332,15.760328388987205 l20.71754820670519,-13.529365971049469 " fill-rule="evenodd" id="svg_18"/><path fill="#000000" fill-opacity="0.0" d="m175.7863303804786,2.2309627666637866 l0,180.8128538483435 " fill-rule="evenodd" id="svg_19"/><path stroke="#000000" stroke-width="1.0" stroke-linejoin="round" stroke-linecap="butt" d="m175.7863303804786,2.2309627666637866 l0,180.8128538483435 " fill-rule="evenodd" id="svg_20"/><path fill="#000000" fill-opacity="0.0" d="m175.7863303804786,183.03992709898577 l-20.71754820670519,13.529364227419208 " fill-rule="evenodd" id="svg_21"/><path stroke="#000000" stroke-width="1.0" stroke-linejoin="round" stroke-linecap="butt" d="m175.7863303804786,183.03992709898577 l-20.71754820670519,13.529364227419208 " fill-rule="evenodd" id="svg_22"/></g></g></svg>