<svg xmlns:xlink="http://www.w3.org/1999/xlink" xmlns="http://www.w3.org/2000/svg" version="1.1" fill="none" stroke="none" stroke-linecap="square" stroke-miterlimit="10" width="173.03369778783724" height="233.70785928106625" style=""><rect id="backgroundrect" width="100%" height="100%" x="0" y="0" fill="none" stroke="none"/><clipPath id="p.0"><path d="m0 0l800.0 0l0 600.0l-800.0 0l0 -600.0z" clip-rule="nonzero" id="svg_1"/></clipPath><g class="currentLayer" style=""><title>Layer 1</title><g clip-path="url(#p.0)" id="svg_2"><path fill="#000000" fill-opacity="0.0" d="m0 0l800.0 0l0 600.0l-800.0 0z" fill-rule="evenodd" id="svg_3"/><path fill="#efefef" d="m29.525896 4.2508583l137.8387 0l0 207.1476l-137.8387 0z" fill-rule="evenodd" id="svg_4"/><path stroke="#efefef" stroke-width="1.0" stroke-linejoin="round" stroke-linecap="butt" d="m29.525896 4.2508583l137.8387 0l0 207.1476l-137.8387 0z" fill-rule="evenodd" id="svg_5"/><path fill="#000000" d="m4.8871794 19.523891l137.8387 0l0 207.14758l-137.8387 0z" fill-rule="evenodd" id="svg_6"/><path fill="#efefef" d="m29.508556 19.523829l-24.222473 0l24.186346 -15.518618z" fill-rule="evenodd" id="svg_7"/><path stroke="#efefef" stroke-width="1.0" stroke-linejoin="round" stroke-linecap="butt" d="m29.508556 19.523829l-24.222473 0l24.186346 -15.518618z" fill-rule="evenodd" id="svg_8"/><path fill="#efefef" d="m166.98448 19.523829l-24.222473 0l24.186356 -15.518618z" fill-rule="evenodd" id="svg_9"/><path stroke="#efefef" stroke-width="1.0" stroke-linejoin="round" stroke-linecap="butt" d="m166.98448 19.523829l-24.222473 0l24.186356 -15.518618z" fill-rule="evenodd" id="svg_10"/><path fill="#efefef" d="m142.72589 211.39891l24.222473 0l-24.186356 15.518616z" fill-rule="evenodd" id="svg_11"/><path stroke="#efefef" stroke-width="1.0" stroke-linejoin="round" stroke-linecap="butt" d="m142.72589 211.39891l24.222473 0l-24.186356 15.518616z" fill-rule="evenodd" id="svg_12"/><path fill="#000000" fill-opacity="0.0" d="m5.286083 19.523829l24.186346 -15.518618" fill-rule="evenodd" id="svg_13"/><path stroke="#000000" stroke-width="1.0" stroke-linejoin="round" stroke-linecap="butt" d="m5.286083 19.523829l24.186346 -15.518618" fill-rule="evenodd" id="svg_14"/><path fill="#000000" fill-opacity="0.0" d="m29.47243 4.0052114l137.47743 0" fill-rule="evenodd" id="svg_15"/><path stroke="#000000" stroke-width="1.0" stroke-linejoin="round" stroke-linecap="butt" d="m29.47243 4.0052114l137.47743 0" fill-rule="evenodd" id="svg_16"/><path fill="#000000" fill-opacity="0.0" d="m142.76201 19.523829l24.186356 -15.518618" fill-rule="evenodd" id="svg_17"/><path stroke="#000000" stroke-width="1.0" stroke-linejoin="round" stroke-linecap="butt" d="m142.76201 19.523829l24.186356 -15.518618" fill-rule="evenodd" id="svg_18"/><path fill="#000000" fill-opacity="0.0" d="m166.94836 4.0052114l0 207.39816" fill-rule="evenodd" id="svg_19"/><path stroke="#000000" stroke-width="1.0" stroke-linejoin="round" stroke-linecap="butt" d="m166.94836 4.0052114l0 207.39816" fill-rule="evenodd" id="svg_20"/><path fill="#000000" fill-opacity="0.0" d="m166.94836 211.39891l-24.186356 15.518616" fill-rule="evenodd" id="svg_21"/><path stroke="#000000" stroke-width="1.0" stroke-linejoin="round" stroke-linecap="butt" d="m166.94836 211.39891l-24.186356 15.518616" fill-rule="evenodd" id="svg_22"/></g></g></svg>