<svg version="1.1" viewBox="0.0 0.0 800.0 600.0" fill="none" stroke="none" stroke-linecap="square" stroke-miterlimit="10" xmlns:xlink="http://www.w3.org/1999/xlink" xmlns="http://www.w3.org/2000/svg"><clipPath id="p.0"><path d="m0 0l800.0 0l0 600.0l-800.0 0l0 -600.0z" clip-rule="nonzero"/></clipPath><g clip-path="url(#p.0)"><path fill="#000000" fill-opacity="0.0" d="m0 0l800.0 0l0 600.0l-800.0 0z" fill-rule="evenodd"/><path fill="#000000" d="m126.703995 90.32179l153.5999 0l0 6.3485413l-153.5999 0z" fill-rule="evenodd"/><path stroke="#000000" stroke-width="1.0" stroke-linejoin="round" stroke-linecap="butt" d="m126.703995 90.32179l153.5999 0l0 6.3485413l-153.5999 0z" fill-rule="evenodd"/><path fill="#000000" d="m126.703995 148.3218l153.5999 0l0 6.3485413l-153.5999 0z" fill-rule="evenodd"/><path stroke="#000000" stroke-width="1.0" stroke-linejoin="round" stroke-linecap="butt" d="m126.703995 148.3218l153.5999 0l0 6.3485413l-153.5999 0z" fill-rule="evenodd"/><path fill="#cccccc" d="m145.0 83.16834l0 0c0 -10.034096 8.134247 -18.168343 18.168335 -18.168343l80.6712 0c4.8185425 0 9.439728 1.9141617 12.846954 5.3213806c3.4072266 3.4072266 5.3213806 8.0284195 5.3213806 12.846962l0 72.671196c0 10.034088 -8.134247 18.168335 -18.168335 18.168335l-80.6712 0l0 0c-10.034088 0 -18.168335 -8.134247 -18.168335 -18.168335z" fill-rule="evenodd"/><path stroke="#000000" stroke-width="4.0" stroke-linejoin="round" stroke-linecap="butt" d="m145.0 83.16834l0 0c0 -10.034096 8.134247 -18.168343 18.168335 -18.168343l80.6712 0c4.8185425 0 9.439728 1.9141617 12.846954 5.3213806c3.4072266 3.4072266 5.3213806 8.0284195 5.3213806 12.846962l0 72.671196c0 10.034088 -8.134247 18.168335 -18.168335 18.168335l-80.6712 0l0 0c-10.034088 0 -18.168335 -8.134247 -18.168335 -18.168335z" fill-rule="evenodd"/><path fill="#000000" d="m172.0 93.49606l0 0c0 4.696594 -4.251526 8.503937 -9.496063 8.503937l0 0c-5.2445374 0 -9.496063 -3.8073425 -9.496063 -8.503937l0 0c0 -4.696594 4.251526 -8.503937 9.496063 -8.503937l0 0c5.2445374 0 9.496063 3.8073425 9.496063 8.503937z" fill-rule="evenodd"/><path stroke="#000000" stroke-width="1.0" stroke-linejoin="round" stroke-linecap="butt" d="m172.0 93.49606l0 0c0 4.696594 -4.251526 8.503937 -9.496063 8.503937l0 0c-5.2445374 0 -9.496063 -3.8073425 -9.496063 -8.503937l0 0c0 -4.696594 4.251526 -8.503937 9.496063 -8.503937l0 0c5.2445374 0 9.496063 3.8073425 9.496063 8.503937z" fill-rule="evenodd"/><path fill="#000000" d="m255.0 93.49606l0 0c0 4.696594 -4.251526 8.503937 -9.496063 8.503937l0 0c-5.2445374 0 -9.496063 -3.8073425 -9.496063 -8.503937l0 0c0 -4.696594 4.251526 -8.503937 9.496063 -8.503937l0 0c5.2445374 0 9.496063 3.8073425 9.496063 8.503937z" fill-rule="evenodd"/><path stroke="#000000" stroke-width="1.0" stroke-linejoin="round" stroke-linecap="butt" d="m255.0 93.49606l0 0c0 4.696594 -4.251526 8.503937 -9.496063 8.503937l0 0c-5.2445374 0 -9.496063 -3.8073425 -9.496063 -8.503937l0 0c0 -4.696594 4.251526 -8.503937 9.496063 -8.503937l0 0c5.2445374 0 9.496063 3.8073425 9.496063 8.503937z" fill-rule="evenodd"/><path fill="#000000" d="m172.0 151.49606l0 0c0 4.696594 -4.251526 8.503937 -9.496063 8.503937l0 0c-5.2445374 0 -9.496063 -3.8073425 -9.496063 -8.503937l0 0c0 -4.696594 4.251526 -8.503937 9.496063 -8.503937l0 0c5.2445374 0 9.496063 3.8073425 9.496063 8.503937z" fill-rule="evenodd"/><path stroke="#000000" stroke-width="1.0" stroke-linejoin="round" stroke-linecap="butt" d="m172.0 151.49606l0 0c0 4.696594 -4.251526 8.503937 -9.496063 8.503937l0 0c-5.2445374 0 -9.496063 -3.8073425 -9.496063 -8.503937l0 0c0 -4.696594 4.251526 -8.503937 9.496063 -8.503937l0 0c5.2445374 0 9.496063 3.8073425 9.496063 8.503937z" fill-rule="evenodd"/><path fill="#000000" d="m255.0 151.49606l0 0c0 4.696594 -4.251526 8.503937 -9.496063 8.503937l0 0c-5.2445374 0 -9.496063 -3.8073425 -9.496063 -8.503937l0 0c0 -4.696594 4.251526 -8.503937 9.496063 -8.503937l0 0c5.2445374 0 9.496063 3.8073425 9.496063 8.503937z" fill-rule="evenodd"/><path stroke="#000000" stroke-width="1.0" stroke-linejoin="round" stroke-linecap="butt" d="m255.0 151.49606l0 0c0 4.696594 -4.251526 8.503937 -9.496063 8.503937l0 0c-5.2445374 0 -9.496063 -3.8073425 -9.496063 -8.503937l0 0c0 -4.696594 4.251526 -8.503937 9.496063 -8.503937l0 0c5.2445374 0 9.496063 3.8073425 9.496063 8.503937z" fill-rule="evenodd"/><path fill="#980000" d="m174.49606 119.50394l0 0c0 -13.53315 12.987274 -24.503937 29.007874 -24.503937l0 0c16.0206 0 29.007874 10.970787 29.007874 24.503937l0 0c0 13.533157 -12.987274 24.503937 -29.007874 24.503937l0 0c-16.0206 0 -29.007874 -10.970779 -29.007874 -24.503937z" fill-rule="evenodd"/><path stroke="#000000" stroke-width="1.0" stroke-linejoin="round" stroke-linecap="butt" d="m174.49606 119.50394l0 0c0 -13.53315 12.987274 -24.503937 29.007874 -24.503937l0 0c16.0206 0 29.007874 10.970787 29.007874 24.503937l0 0c0 13.533157 -12.987274 24.503937 -29.007874 24.503937l0 0c-16.0206 0 -29.007874 -10.970779 -29.007874 -24.503937z" fill-rule="evenodd"/></g></svg>