<?xml version="1.0" encoding="UTF-8" standalone="no"?>
<svg
   xmlns:dc="http://purl.org/dc/elements/1.1/"
   xmlns:cc="http://creativecommons.org/ns#"
   xmlns:rdf="http://www.w3.org/1999/02/22-rdf-syntax-ns#"
   xmlns:svg="http://www.w3.org/2000/svg"
   xmlns="http://www.w3.org/2000/svg"
   xmlns:sodipodi="http://sodipodi.sourceforge.net/DTD/sodipodi-0.dtd"
   xmlns:inkscape="http://www.inkscape.org/namespaces/inkscape"
   version="1.1"
   stroke-miterlimit="10"
   width="350"
   height="160"
   style="fill:none;stroke:none;stroke-linecap:square;stroke-miterlimit:10"
   id="svg4343"
   sodipodi:docname="lcd_display2.svg"
   inkscape:version="0.92.3 (unknown)">
  <metadata
     id="metadata4349">
    <rdf:RDF>
      <cc:Work
         rdf:about="">
        <dc:format>image/svg+xml</dc:format>
        <dc:type
           rdf:resource="http://purl.org/dc/dcmitype/StillImage" />
        <dc:title></dc:title>
      </cc:Work>
    </rdf:RDF>
  </metadata>
  <defs
     id="defs4347" />
  <sodipodi:namedview
     pagecolor="#ffffff"
     bordercolor="#666666"
     borderopacity="1"
     objecttolerance="10"
     gridtolerance="10"
     guidetolerance="10"
     inkscape:pageopacity="0"
     inkscape:pageshadow="2"
     inkscape:window-width="1920"
     inkscape:window-height="1019"
     id="namedview4345"
     showgrid="false"
     inkscape:zoom="3.9443183"
     inkscape:cx="210.70345"
     inkscape:cy="73.299762"
     inkscape:window-x="0"
     inkscape:window-y="1080"
     inkscape:window-maximized="1"
     inkscape:current-layer="svg4343" />
  <rect
     id="backgroundrect"
     width="100%"
     height="100%"
     x="0"
     y="-37.752808"
     style="fill:none;stroke:none" />
  <clipPath
     id="p.0">
    <path
       d="M 0,0 H 800 V 600 H 0 Z"
       id="svg_1"
       inkscape:connector-curvature="0"
       style="clip-rule:nonzero" />
  </clipPath>
  <g
     class="currentLayer"
     id="g4341"
     transform="matrix(0.7977895,0,0,0.76054399,0.71708897,4.8530026)">
    <title
       id="title4268">Layer 1</title>
    <g
       clip-path="url(#p.0)"
       id="svg_2"
       class="selected">
      <path
         d="M 0,0 H 800 V 600 H 0 Z"
         id="svg_3"
         inkscape:connector-curvature="0"
         style="fill:#000000;fill-opacity:0;fill-rule:evenodd" />
      <path
         d="M 0,1.3779528 H 436.97638 V 195.26771 H 0 Z"
         id="svg_4"
         inkscape:connector-curvature="0"
         style="fill:#38761d;fill-rule:evenodd" />
      <path
         d="M 0,1.3779528 H 436.97638 V 195.26771 H 0 Z"
         id="svg_5"
         inkscape:connector-curvature="0"
         style="fill-rule:evenodd;stroke:#000000;stroke-width:1;stroke-linecap:butt;stroke-linejoin:round" />
      <path
         d="m 3.472441,10.062992 v 0 c 0,-3.2615242 3.1093295,-5.905512 6.944882,-5.905512 v 0 c 3.835553,0 6.944883,2.6439877 6.944883,5.905512 v 0 c 0,3.261524 -3.10933,5.905512 -6.944883,5.905512 v 0 c -3.8355523,0 -6.944882,-2.643988 -6.944882,-5.905512 z"
         id="svg_6"
         inkscape:connector-curvature="0"
         style="fill:#000000;fill-rule:evenodd" />
      <path
         d="m 3.472441,10.062992 v 0 c 0,-3.2615242 3.1093295,-5.905512 6.944882,-5.905512 v 0 c 3.835553,0 6.944883,2.6439877 6.944883,5.905512 v 0 c 0,3.261524 -3.10933,5.905512 -6.944883,5.905512 v 0 c -3.8355523,0 -6.944882,-2.643988 -6.944882,-5.905512 z"
         id="svg_7"
         inkscape:connector-curvature="0"
         style="fill-rule:evenodd;stroke:#bf9000;stroke-width:4;stroke-linecap:butt;stroke-linejoin:round" />
      <path
         d="m 3.472441,186.47769 v 0 c 0,-3.26152 3.1093295,-5.90552 6.944882,-5.90552 v 0 c 3.835553,0 6.944883,2.644 6.944883,5.90552 v 0 c 0,3.26152 -3.10933,5.90552 -6.944883,5.90552 v 0 c -3.8355523,0 -6.944882,-2.644 -6.944882,-5.90552 z"
         id="svg_8"
         inkscape:connector-curvature="0"
         style="fill:#000000;fill-rule:evenodd" />
      <path
         d="m 3.472441,186.47769 v 0 c 0,-3.26152 3.1093295,-5.90552 6.944882,-5.90552 v 0 c 3.835553,0 6.944883,2.644 6.944883,5.90552 v 0 c 0,3.26152 -3.10933,5.90552 -6.944883,5.90552 v 0 c -3.8355523,0 -6.944882,-2.644 -6.944882,-5.90552 z"
         id="svg_9"
         inkscape:connector-curvature="0"
         style="fill-rule:evenodd;stroke:#bf9000;stroke-width:4;stroke-linecap:butt;stroke-linejoin:round" />
      <path
         d="m 419.4987,10.062992 v 0 c 0,-3.2615242 3.10934,-5.905512 6.94489,-5.905512 v 0 c 3.83554,0 6.94488,2.6439877 6.94488,5.905512 v 0 c 0,3.261524 -3.10934,5.905512 -6.94488,5.905512 v 0 c -3.83555,0 -6.94489,-2.643988 -6.94489,-5.905512 z"
         id="svg_10"
         inkscape:connector-curvature="0"
         style="fill:#000000;fill-rule:evenodd" />
      <path
         d="m 419.4987,10.062992 v 0 c 0,-3.2615242 3.10934,-5.905512 6.94489,-5.905512 v 0 c 3.83554,0 6.94488,2.6439877 6.94488,5.905512 v 0 c 0,3.261524 -3.10934,5.905512 -6.94488,5.905512 v 0 c -3.83555,0 -6.94489,-2.643988 -6.94489,-5.905512 z"
         id="svg_11"
         inkscape:connector-curvature="0"
         style="fill-rule:evenodd;stroke:#bf9000;stroke-width:4;stroke-linecap:butt;stroke-linejoin:round" />
      <path
         d="m 419.4987,186.47769 v 0 c 0,-3.26152 3.10934,-5.90552 6.94489,-5.90552 v 0 c 3.83554,0 6.94488,2.644 6.94488,5.90552 v 0 c 0,3.26152 -3.10934,5.90552 -6.94488,5.90552 v 0 c -3.83555,0 -6.94489,-2.644 -6.94489,-5.90552 z"
         id="svg_12"
         inkscape:connector-curvature="0"
         style="fill:#000000;fill-rule:evenodd" />
      <path
         d="m 419.4987,186.47769 v 0 c 0,-3.26152 3.10934,-5.90552 6.94489,-5.90552 v 0 c 3.83554,0 6.94488,2.644 6.94488,5.90552 v 0 c 0,3.26152 -3.10934,5.90552 -6.94488,5.90552 v 0 c -3.83555,0 -6.94489,-2.644 -6.94489,-5.90552 z"
         id="svg_13"
         inkscape:connector-curvature="0"
         style="fill-rule:evenodd;stroke:#bf9000;stroke-width:4;stroke-linecap:butt;stroke-linejoin:round" />
      <path
         d="m 142.56168,0 v 10.062992 0 c 0,5.557637 -2.64398,10.062992 -5.9055,10.062992 -3.26154,0 -5.90552,-4.505355 -5.90552,-10.062992 V 0 Z"
         id="svg_14"
         inkscape:connector-curvature="0"
         style="fill:#bf9000;fill-rule:evenodd" />
      <path
         d="m 142.56168,0 v 10.062992 0 c 0,5.557637 -2.64398,10.062992 -5.9055,10.062992 -3.26154,0 -5.90552,-4.505355 -5.90552,-10.062992 V 0 Z"
         id="svg_15"
         inkscape:connector-curvature="0"
         style="fill-rule:evenodd;stroke:#000000;stroke-width:1;stroke-linecap:butt;stroke-linejoin:round" />
      <path
         d="m 133.53806,10.062992 v 0 c 0,-1.148056 1.39603,-2.0787401 3.11812,-2.0787401 v 0 c 1.72207,0 3.1181,0.9306841 3.1181,2.0787401 v 0 c 0,1.148057 -1.39603,2.07874 -3.1181,2.07874 v 0 c -1.72209,0 -3.11812,-0.930683 -3.11812,-2.07874 z"
         id="svg_16"
         inkscape:connector-curvature="0"
         style="fill:#000000;fill-rule:evenodd" />
      <path
         d="m 133.53806,10.062992 v 0 c 0,-1.148056 1.39603,-2.0787401 3.11812,-2.0787401 v 0 c 1.72207,0 3.1181,0.9306841 3.1181,2.0787401 v 0 c 0,1.148057 -1.39603,2.07874 -3.1181,2.07874 v 0 c -1.72209,0 -3.11812,-0.930683 -3.11812,-2.07874 z"
         id="svg_17"
         inkscape:connector-curvature="0"
         style="fill-rule:evenodd;stroke:#000000;stroke-width:1;stroke-linecap:butt;stroke-linejoin:round" />
      <path
         d="m 159.2546,0 v 10.062992 0 c 0,5.557637 -2.64398,10.062992 -5.90552,10.062992 -3.26152,0 -5.9055,-4.505355 -5.9055,-10.062992 V 0 Z"
         id="svg_18"
         inkscape:connector-curvature="0"
         style="fill:#bf9000;fill-rule:evenodd" />
      <path
         d="m 159.2546,0 v 10.062992 0 c 0,5.557637 -2.64398,10.062992 -5.90552,10.062992 -3.26152,0 -5.9055,-4.505355 -5.9055,-10.062992 V 0 Z"
         id="svg_19"
         inkscape:connector-curvature="0"
         style="fill-rule:evenodd;stroke:#000000;stroke-width:1;stroke-linecap:butt;stroke-linejoin:round" />
      <path
         d="m 150.23097,10.062992 v 0 c 0,-1.148056 1.39603,-2.0787401 3.1181,-2.0787401 v 0 c 1.72209,0 3.11812,0.9306841 3.11812,2.0787401 v 0 c 0,1.148057 -1.39603,2.07874 -3.11812,2.07874 v 0 c -1.72207,0 -3.1181,-0.930683 -3.1181,-2.07874 z"
         id="svg_20"
         inkscape:connector-curvature="0"
         style="fill:#000000;fill-rule:evenodd" />
      <path
         d="m 150.23097,10.062992 v 0 c 0,-1.148056 1.39603,-2.0787401 3.1181,-2.0787401 v 0 c 1.72209,0 3.11812,0.9306841 3.11812,2.0787401 v 0 c 0,1.148057 -1.39603,2.07874 -3.11812,2.07874 v 0 c -1.72207,0 -3.1181,-0.930683 -3.1181,-2.07874 z"
         id="svg_21"
         inkscape:connector-curvature="0"
         style="fill-rule:evenodd;stroke:#000000;stroke-width:1;stroke-linecap:butt;stroke-linejoin:round" />
      <path
         d="m 175.94751,0 v 10.062992 0 c 0,5.557637 -2.644,10.062992 -5.90552,10.062992 -3.26152,0 -5.9055,-4.505355 -5.9055,-10.062992 V 0 Z"
         id="svg_22"
         inkscape:connector-curvature="0"
         style="fill:#bf9000;fill-rule:evenodd" />
      <path
         d="m 175.94751,0 v 10.062992 0 c 0,5.557637 -2.644,10.062992 -5.90552,10.062992 -3.26152,0 -5.9055,-4.505355 -5.9055,-10.062992 V 0 Z"
         id="svg_23"
         inkscape:connector-curvature="0"
         style="fill-rule:evenodd;stroke:#000000;stroke-width:1;stroke-linecap:butt;stroke-linejoin:round" />
      <path
         d="m 166.92389,10.062992 v 0 c 0,-1.148056 1.39603,-2.0787401 3.1181,-2.0787401 v 0 c 1.72209,0 3.11812,0.9306841 3.11812,2.0787401 v 0 c 0,1.148057 -1.39603,2.07874 -3.11812,2.07874 v 0 c -1.72207,0 -3.1181,-0.930683 -3.1181,-2.07874 z"
         id="svg_24"
         inkscape:connector-curvature="0"
         style="fill:#000000;fill-rule:evenodd" />
      <path
         d="m 166.92389,10.062992 v 0 c 0,-1.148056 1.39603,-2.0787401 3.1181,-2.0787401 v 0 c 1.72209,0 3.11812,0.9306841 3.11812,2.0787401 v 0 c 0,1.148057 -1.39603,2.07874 -3.11812,2.07874 v 0 c -1.72207,0 -3.1181,-0.930683 -3.1181,-2.07874 z"
         id="svg_25"
         inkscape:connector-curvature="0"
         style="fill-rule:evenodd;stroke:#000000;stroke-width:1;stroke-linecap:butt;stroke-linejoin:round" />
      <path
         d="m 192.64043,0 v 10.062992 0 c 0,5.557637 -2.644,10.062992 -5.90552,10.062992 -3.26152,0 -5.90552,-4.505355 -5.90552,-10.062992 V 0 Z"
         id="svg_26"
         inkscape:connector-curvature="0"
         style="fill:#bf9000;fill-rule:evenodd" />
      <path
         d="m 192.64043,0 v 10.062992 0 c 0,5.557637 -2.644,10.062992 -5.90552,10.062992 -3.26152,0 -5.90552,-4.505355 -5.90552,-10.062992 V 0 Z"
         id="svg_27"
         inkscape:connector-curvature="0"
         style="fill-rule:evenodd;stroke:#000000;stroke-width:1;stroke-linecap:butt;stroke-linejoin:round" />
      <path
         d="m 183.61679,10.062992 v 0 c 0,-1.148056 1.39603,-2.0787401 3.11812,-2.0787401 v 0 c 1.72207,0 3.1181,0.9306841 3.1181,2.0787401 v 0 c 0,1.148057 -1.39603,2.07874 -3.1181,2.07874 v 0 c -1.72209,0 -3.11812,-0.930683 -3.11812,-2.07874 z"
         id="svg_28"
         inkscape:connector-curvature="0"
         style="fill:#000000;fill-rule:evenodd" />
      <path
         d="m 183.61679,10.062992 v 0 c 0,-1.148056 1.39603,-2.0787401 3.11812,-2.0787401 v 0 c 1.72207,0 3.1181,0.9306841 3.1181,2.0787401 v 0 c 0,1.148057 -1.39603,2.07874 -3.1181,2.07874 v 0 c -1.72209,0 -3.11812,-0.930683 -3.11812,-2.07874 z"
         id="svg_29"
         inkscape:connector-curvature="0"
         style="fill-rule:evenodd;stroke:#000000;stroke-width:1;stroke-linecap:butt;stroke-linejoin:round" />
      <path
         d="m 209.33333,0 v 10.062992 0 c 0,5.557637 -2.64398,10.062992 -5.9055,10.062992 -3.26154,0 -5.90552,-4.505355 -5.90552,-10.062992 V 0 Z"
         id="svg_30"
         inkscape:connector-curvature="0"
         style="fill:#bf9000;fill-rule:evenodd" />
      <path
         d="m 209.33333,0 v 10.062992 0 c 0,5.557637 -2.64398,10.062992 -5.9055,10.062992 -3.26154,0 -5.90552,-4.505355 -5.90552,-10.062992 V 0 Z"
         id="svg_31"
         inkscape:connector-curvature="0"
         style="fill-rule:evenodd;stroke:#000000;stroke-width:1;stroke-linecap:butt;stroke-linejoin:round" />
      <path
         d="m 200.30971,10.062992 v 0 c 0,-1.148056 1.39603,-2.0787401 3.11812,-2.0787401 v 0 c 1.72207,0 3.1181,0.9306841 3.1181,2.0787401 v 0 c 0,1.148057 -1.39603,2.07874 -3.1181,2.07874 v 0 c -1.72209,0 -3.11812,-0.930683 -3.11812,-2.07874 z"
         id="svg_32"
         inkscape:connector-curvature="0"
         style="fill:#000000;fill-rule:evenodd" />
      <path
         d="m 200.30971,10.062992 v 0 c 0,-1.148056 1.39603,-2.0787401 3.11812,-2.0787401 v 0 c 1.72207,0 3.1181,0.9306841 3.1181,2.0787401 v 0 c 0,1.148057 -1.39603,2.07874 -3.1181,2.07874 v 0 c -1.72209,0 -3.11812,-0.930683 -3.11812,-2.07874 z"
         id="svg_33"
         inkscape:connector-curvature="0"
         style="fill-rule:evenodd;stroke:#000000;stroke-width:1;stroke-linecap:butt;stroke-linejoin:round" />
      <path
         d="m 226.02625,0 v 10.062992 0 c 0,5.557637 -2.64398,10.062992 -5.90552,10.062992 -3.26152,0 -5.9055,-4.505355 -5.9055,-10.062992 V 0 Z"
         id="svg_34"
         inkscape:connector-curvature="0"
         style="fill:#bf9000;fill-rule:evenodd" />
      <path
         d="m 226.02625,0 v 10.062992 0 c 0,5.557637 -2.64398,10.062992 -5.90552,10.062992 -3.26152,0 -5.9055,-4.505355 -5.9055,-10.062992 V 0 Z"
         id="svg_35"
         inkscape:connector-curvature="0"
         style="fill-rule:evenodd;stroke:#000000;stroke-width:1;stroke-linecap:butt;stroke-linejoin:round" />
      <path
         d="m 217.00262,10.062992 v 0 c 0,-1.148056 1.39603,-2.0787401 3.1181,-2.0787401 v 0 c 1.72209,0 3.11812,0.9306841 3.11812,2.0787401 v 0 c 0,1.148057 -1.39603,2.07874 -3.11812,2.07874 v 0 c -1.72207,0 -3.1181,-0.930683 -3.1181,-2.07874 z"
         id="svg_36"
         inkscape:connector-curvature="0"
         style="fill:#000000;fill-rule:evenodd" />
      <path
         d="m 217.00262,10.062992 v 0 c 0,-1.148056 1.39603,-2.0787401 3.1181,-2.0787401 v 0 c 1.72209,0 3.11812,0.9306841 3.11812,2.0787401 v 0 c 0,1.148057 -1.39603,2.07874 -3.11812,2.07874 v 0 c -1.72207,0 -3.1181,-0.930683 -3.1181,-2.07874 z"
         id="svg_37"
         inkscape:connector-curvature="0"
         style="fill-rule:evenodd;stroke:#000000;stroke-width:1;stroke-linecap:butt;stroke-linejoin:round" />
      <path
         d="m 42.404198,0 v 10.062992 0 c 0,5.557637 -2.643986,10.062992 -5.90551,10.062992 -3.261524,0 -5.905512,-4.505355 -5.905512,-10.062992 V 0 Z"
         id="svg_38"
         inkscape:connector-curvature="0"
         style="fill:#bf9000;fill-rule:evenodd" />
      <path
         d="m 42.404198,0 v 10.062992 0 c 0,5.557637 -2.643986,10.062992 -5.90551,10.062992 -3.261524,0 -5.905512,-4.505355 -5.905512,-10.062992 V 0 Z"
         id="svg_39"
         inkscape:connector-curvature="0"
         style="fill-rule:evenodd;stroke:#000000;stroke-width:1;stroke-linecap:butt;stroke-linejoin:round" />
      <path
         d="m 33.380577,10.062992 v 0 c 0,-1.148056 1.396027,-2.0787401 3.118111,-2.0787401 v 0 c 1.722084,0 3.11811,0.9306841 3.11811,2.0787401 v 0 c 0,1.148057 -1.396026,2.07874 -3.11811,2.07874 v 0 c -1.722084,0 -3.118111,-0.930683 -3.118111,-2.07874 z"
         id="svg_40"
         inkscape:connector-curvature="0"
         style="fill:#000000;fill-rule:evenodd" />
      <path
         d="m 33.380577,10.062992 v 0 c 0,-1.148056 1.396027,-2.0787401 3.118111,-2.0787401 v 0 c 1.722084,0 3.11811,0.9306841 3.11811,2.0787401 v 0 c 0,1.148057 -1.396026,2.07874 -3.11811,2.07874 v 0 c -1.722084,0 -3.118111,-0.930683 -3.118111,-2.07874 z"
         id="svg_41"
         inkscape:connector-curvature="0"
         style="fill-rule:evenodd;stroke:#000000;stroke-width:1;stroke-linecap:butt;stroke-linejoin:round" />
      <path
         d="m 59.097115,0 v 10.062992 0 c 0,5.557637 -2.64399,10.062992 -5.905514,10.062992 -3.261524,0 -5.90551,-4.505355 -5.90551,-10.062992 V 0 Z"
         id="svg_42"
         inkscape:connector-curvature="0"
         style="fill:#bf9000;fill-rule:evenodd" />
      <path
         d="m 59.097115,0 v 10.062992 0 c 0,5.557637 -2.64399,10.062992 -5.905514,10.062992 -3.261524,0 -5.90551,-4.505355 -5.90551,-10.062992 V 0 Z"
         id="svg_43"
         inkscape:connector-curvature="0"
         style="fill-rule:evenodd;stroke:#000000;stroke-width:1;stroke-linecap:butt;stroke-linejoin:round" />
      <path
         d="m 50.07349,10.062992 v 0 c 0,-1.148056 1.396027,-2.0787401 3.118111,-2.0787401 v 0 c 1.722084,0 3.11811,0.9306841 3.11811,2.0787401 v 0 c 0,1.148057 -1.396026,2.07874 -3.11811,2.07874 v 0 c -1.722084,0 -3.118111,-0.930683 -3.118111,-2.07874 z"
         id="svg_44"
         inkscape:connector-curvature="0"
         style="fill:#000000;fill-rule:evenodd" />
      <path
         d="m 50.07349,10.062992 v 0 c 0,-1.148056 1.396027,-2.0787401 3.118111,-2.0787401 v 0 c 1.722084,0 3.11811,0.9306841 3.11811,2.0787401 v 0 c 0,1.148057 -1.396026,2.07874 -3.11811,2.07874 v 0 c -1.722084,0 -3.118111,-0.930683 -3.118111,-2.07874 z"
         id="svg_45"
         inkscape:connector-curvature="0"
         style="fill-rule:evenodd;stroke:#000000;stroke-width:1;stroke-linecap:butt;stroke-linejoin:round" />
      <path
         d="m 75.79002,0 v 10.062992 0 c 0,5.557637 -2.643982,10.062992 -5.90551,10.062992 -3.26152,0 -5.90551,-4.505355 -5.90551,-10.062992 V 0 Z"
         id="svg_46"
         inkscape:connector-curvature="0"
         style="fill:#bf9000;fill-rule:evenodd" />
      <path
         d="m 75.79002,0 v 10.062992 0 c 0,5.557637 -2.643982,10.062992 -5.90551,10.062992 -3.26152,0 -5.90551,-4.505355 -5.90551,-10.062992 V 0 Z"
         id="svg_47"
         inkscape:connector-curvature="0"
         style="fill-rule:evenodd;stroke:#000000;stroke-width:1;stroke-linecap:butt;stroke-linejoin:round" />
      <path
         d="m 66.7664,10.062992 v 0 c 0,-1.148056 1.396027,-2.0787401 3.118111,-2.0787401 v 0 c 1.722084,0 3.11811,0.9306841 3.11811,2.0787401 v 0 c 0,1.148057 -1.396026,2.07874 -3.11811,2.07874 v 0 c -1.722084,0 -3.118111,-0.930683 -3.118111,-2.07874 z"
         id="svg_48"
         inkscape:connector-curvature="0"
         style="fill:#000000;fill-rule:evenodd" />
      <path
         d="m 66.7664,10.062992 v 0 c 0,-1.148056 1.396027,-2.0787401 3.118111,-2.0787401 v 0 c 1.722084,0 3.11811,0.9306841 3.11811,2.0787401 v 0 c 0,1.148057 -1.396026,2.07874 -3.11811,2.07874 v 0 c -1.722084,0 -3.118111,-0.930683 -3.118111,-2.07874 z"
         id="svg_49"
         inkscape:connector-curvature="0"
         style="fill-rule:evenodd;stroke:#000000;stroke-width:1;stroke-linecap:butt;stroke-linejoin:round" />
      <path
         d="m 92.48294,0 v 10.062992 0 c 0,5.557637 -2.64399,10.062992 -5.90551,10.062992 -3.261528,0 -5.905518,-4.505355 -5.905518,-10.062992 V 0 Z"
         id="svg_50"
         inkscape:connector-curvature="0"
         style="fill:#bf9000;fill-rule:evenodd" />
      <path
         d="m 92.48294,0 v 10.062992 0 c 0,5.557637 -2.64399,10.062992 -5.90551,10.062992 -3.261528,0 -5.905518,-4.505355 -5.905518,-10.062992 V 0 Z"
         id="svg_51"
         inkscape:connector-curvature="0"
         style="fill-rule:evenodd;stroke:#000000;stroke-width:1;stroke-linecap:butt;stroke-linejoin:round" />
      <path
         d="m 83.45932,10.062992 v 0 c 0,-1.148056 1.396027,-2.0787401 3.118111,-2.0787401 v 0 c 1.722084,0 3.11811,0.9306841 3.11811,2.0787401 v 0 c 0,1.148057 -1.396026,2.07874 -3.11811,2.07874 v 0 c -1.722084,0 -3.118111,-0.930683 -3.118111,-2.07874 z"
         id="svg_52"
         inkscape:connector-curvature="0"
         style="fill:#000000;fill-rule:evenodd" />
      <path
         d="m 83.45932,10.062992 v 0 c 0,-1.148056 1.396027,-2.0787401 3.118111,-2.0787401 v 0 c 1.722084,0 3.11811,0.9306841 3.11811,2.0787401 v 0 c 0,1.148057 -1.396026,2.07874 -3.11811,2.07874 v 0 c -1.722084,0 -3.118111,-0.930683 -3.118111,-2.07874 z"
         id="svg_53"
         inkscape:connector-curvature="0"
         style="fill-rule:evenodd;stroke:#000000;stroke-width:1;stroke-linecap:butt;stroke-linejoin:round" />
      <path
         d="m 109.17585,0 v 10.062992 0 c 0,5.557637 -2.64398,10.062992 -5.90551,10.062992 -3.26152,0 -5.90551,-4.505355 -5.90551,-10.062992 V 0 Z"
         id="svg_54"
         inkscape:connector-curvature="0"
         style="fill:#bf9000;fill-rule:evenodd" />
      <path
         d="m 109.17585,0 v 10.062992 0 c 0,5.557637 -2.64398,10.062992 -5.90551,10.062992 -3.26152,0 -5.90551,-4.505355 -5.90551,-10.062992 V 0 Z"
         id="svg_55"
         inkscape:connector-curvature="0"
         style="fill-rule:evenodd;stroke:#000000;stroke-width:1;stroke-linecap:butt;stroke-linejoin:round" />
      <path
         d="m 100.15223,10.062992 v 0 c 0,-1.148056 1.39603,-2.0787401 3.11811,-2.0787401 v 0 c 1.72208,0 3.11811,0.9306841 3.11811,2.0787401 v 0 c 0,1.148057 -1.39603,2.07874 -3.11811,2.07874 v 0 c -1.72208,0 -3.11811,-0.930683 -3.11811,-2.07874 z"
         id="svg_56"
         inkscape:connector-curvature="0"
         style="fill:#000000;fill-rule:evenodd" />
      <path
         d="m 100.15223,10.062992 v 0 c 0,-1.148056 1.39603,-2.0787401 3.11811,-2.0787401 v 0 c 1.72208,0 3.11811,0.9306841 3.11811,2.0787401 v 0 c 0,1.148057 -1.39603,2.07874 -3.11811,2.07874 v 0 c -1.72208,0 -3.11811,-0.930683 -3.11811,-2.07874 z"
         id="svg_57"
         inkscape:connector-curvature="0"
         style="fill-rule:evenodd;stroke:#000000;stroke-width:1;stroke-linecap:butt;stroke-linejoin:round" />
      <path
         d="m 125.86877,0 v 10.062992 0 c 0,5.557637 -2.64399,10.062992 -5.90551,10.062992 -3.26153,0 -5.90552,-4.505355 -5.90552,-10.062992 V 0 Z"
         id="svg_58"
         inkscape:connector-curvature="0"
         style="fill:#bf9000;fill-rule:evenodd" />
      <path
         d="m 125.86877,0 v 10.062992 0 c 0,5.557637 -2.64399,10.062992 -5.90551,10.062992 -3.26153,0 -5.90552,-4.505355 -5.90552,-10.062992 V 0 Z"
         id="svg_59"
         inkscape:connector-curvature="0"
         style="fill-rule:evenodd;stroke:#000000;stroke-width:1;stroke-linecap:butt;stroke-linejoin:round" />
      <path
         d="m 116.84515,10.062992 v 0 c 0,-1.148056 1.39602,-2.0787401 3.11811,-2.0787401 v 0 c 1.72208,0 3.11811,0.9306841 3.11811,2.0787401 v 0 c 0,1.148057 -1.39603,2.07874 -3.11811,2.07874 v 0 c -1.72209,0 -3.11811,-0.930683 -3.11811,-2.07874 z"
         id="svg_60"
         inkscape:connector-curvature="0"
         style="fill:#000000;fill-rule:evenodd" />
      <path
         d="m 116.84515,10.062992 v 0 c 0,-1.148056 1.39602,-2.0787401 3.11811,-2.0787401 v 0 c 1.72208,0 3.11811,0.9306841 3.11811,2.0787401 v 0 c 0,1.148057 -1.39603,2.07874 -3.11811,2.07874 v 0 c -1.72209,0 -3.11811,-0.930683 -3.11811,-2.07874 z"
         id="svg_61"
         inkscape:connector-curvature="0"
         style="fill-rule:evenodd;stroke:#000000;stroke-width:1;stroke-linecap:butt;stroke-linejoin:round" />
      <path
         d="m 242.71916,0 v 10.062992 0 c 0,5.557637 -2.644,10.062992 -5.90552,10.062992 -3.26152,0 -5.9055,-4.505355 -5.9055,-10.062992 V 0 Z"
         id="svg_62"
         inkscape:connector-curvature="0"
         style="fill:#bf9000;fill-rule:evenodd" />
      <path
         d="m 242.71916,0 v 10.062992 0 c 0,5.557637 -2.644,10.062992 -5.90552,10.062992 -3.26152,0 -5.9055,-4.505355 -5.9055,-10.062992 V 0 Z"
         id="svg_63"
         inkscape:connector-curvature="0"
         style="fill-rule:evenodd;stroke:#000000;stroke-width:1;stroke-linecap:butt;stroke-linejoin:round" />
      <path
         d="m 233.69554,10.062992 v 0 c 0,-1.148056 1.39603,-2.0787401 3.1181,-2.0787401 v 0 c 1.72209,0 3.11812,0.9306841 3.11812,2.0787401 v 0 c 0,1.148057 -1.39603,2.07874 -3.11812,2.07874 v 0 c -1.72207,0 -3.1181,-0.930683 -3.1181,-2.07874 z"
         id="svg_64"
         inkscape:connector-curvature="0"
         style="fill:#000000;fill-rule:evenodd" />
      <path
         d="m 233.69554,10.062992 v 0 c 0,-1.148056 1.39603,-2.0787401 3.1181,-2.0787401 v 0 c 1.72209,0 3.11812,0.9306841 3.11812,2.0787401 v 0 c 0,1.148057 -1.39603,2.07874 -3.11812,2.07874 v 0 c -1.72207,0 -3.1181,-0.930683 -3.1181,-2.07874 z"
         id="svg_65"
         inkscape:connector-curvature="0"
         style="fill-rule:evenodd;stroke:#000000;stroke-width:1;stroke-linecap:butt;stroke-linejoin:round" />
      <path
         d="m 259.41208,0 v 10.062992 0 c 0,5.557637 -2.64398,10.062992 -5.90552,10.062992 -3.26152,0 -5.90552,-4.505355 -5.90552,-10.062992 V 0 Z"
         id="svg_66"
         inkscape:connector-curvature="0"
         style="fill:#bf9000;fill-rule:evenodd" />
      <path
         d="m 259.41208,0 v 10.062992 0 c 0,5.557637 -2.64398,10.062992 -5.90552,10.062992 -3.26152,0 -5.90552,-4.505355 -5.90552,-10.062992 V 0 Z"
         id="svg_67"
         inkscape:connector-curvature="0"
         style="fill-rule:evenodd;stroke:#000000;stroke-width:1;stroke-linecap:butt;stroke-linejoin:round" />
      <path
         d="m 250.38846,10.062992 v 0 c 0,-1.148056 1.39601,-2.0787401 3.1181,-2.0787401 v 0 c 1.72209,0 3.11811,0.9306841 3.11811,2.0787401 v 0 c 0,1.148057 -1.39602,2.07874 -3.11811,2.07874 v 0 c -1.72209,0 -3.1181,-0.930683 -3.1181,-2.07874 z"
         id="svg_68"
         inkscape:connector-curvature="0"
         style="fill:#000000;fill-rule:evenodd" />
      <path
         d="m 250.38846,10.062992 v 0 c 0,-1.148056 1.39601,-2.0787401 3.1181,-2.0787401 v 0 c 1.72209,0 3.11811,0.9306841 3.11811,2.0787401 v 0 c 0,1.148057 -1.39602,2.07874 -3.11811,2.07874 v 0 c -1.72209,0 -3.1181,-0.930683 -3.1181,-2.07874 z"
         id="svg_69"
         inkscape:connector-curvature="0"
         style="fill-rule:evenodd;stroke:#000000;stroke-width:1;stroke-linecap:butt;stroke-linejoin:round" />
      <path
         d="m 17.362206,59.168415 v 0 c 0,-12.080925 9.793526,-21.87445 21.87445,-21.87445 H 397.62948 c 5.80145,0 11.36532,2.304623 15.46756,6.406879 4.10226,4.102253 6.40689,9.666107 6.40689,15.467571 v 87.495195 c 0,12.08093 -9.79352,21.87445 -21.87445,21.87445 H 39.236657 c -12.080925,0 -21.87445,-9.79352 -21.87445,-21.87445 z"
         id="svg_70"
         inkscape:connector-curvature="0"
         style="fill:#bfff0c;fill-rule:evenodd" />
      <path
         d="m 17.362206,59.168415 v 0 c 0,-12.080925 9.793526,-21.87445 21.87445,-21.87445 H 397.62948 c 5.80145,0 11.36532,2.304623 15.46756,6.406879 4.10226,4.102253 6.40689,9.666107 6.40689,15.467571 v 87.495195 c 0,12.08093 -9.79352,21.87445 -21.87445,21.87445 H 39.236657 c -12.080925,0 -21.87445,-9.79352 -21.87445,-21.87445 z"
         id="svg_71"
         inkscape:connector-curvature="0"
         style="fill-rule:evenodd;stroke:#000000;stroke-width:24;stroke-linecap:butt;stroke-linejoin:round" />
      <path
         d="m 38.92126,58.88714 h 359.02362 v 88.88189 H 38.92126 Z"
         id="svg_72"
         inkscape:connector-curvature="0"
         style="fill:#a8e10b;fill-rule:evenodd" />
    </g>
  </g>
</svg>
