<svg version="1.1" viewBox="0.0 0.0 800.0 600.0" fill="none" stroke="none" stroke-linecap="square" stroke-miterlimit="10" xmlns:xlink="http://www.w3.org/1999/xlink" xmlns="http://www.w3.org/2000/svg"><clipPath id="p.0"><path d="m0 0l800.0 0l0 600.0l-800.0 0l0 -600.0z" clip-rule="nonzero"/></clipPath><g clip-path="url(#p.0)"><path fill="#000000" fill-opacity="0.0" d="m0 0l800.0 0l0 600.0l-800.0 0z" fill-rule="evenodd"/><path fill="#999999" d="m255.17455 350.00787l75.83333 0c-8.376312 0 -15.1666565 20.147186 -15.1666565 45.0c0 24.852814 6.790344 45.0 15.1666565 45.0l-75.83333 0l0 0c-8.3763275 0 -15.166672 -20.147186 -15.166672 -45.0c0 -24.852814 6.790344 -45.0 15.166672 -45.0z" fill-rule="evenodd"/><path stroke="#000000" stroke-width="1.0" stroke-linejoin="round" stroke-linecap="butt" d="m255.17455 350.00787l75.83333 0c-8.376312 0 -15.1666565 20.147186 -15.1666565 45.0c0 24.852814 6.790344 45.0 15.1666565 45.0l-75.83333 0l0 0c-8.3763275 0 -15.166672 -20.147186 -15.166672 -45.0c0 -24.852814 6.790344 -45.0 15.166672 -45.0z" fill-rule="evenodd"/><path fill="#999999" d="m192.83727 440.0l-75.83333 0c8.37632 0 15.166672 -20.147186 15.166672 -45.0c0 -24.852814 -6.790352 -45.0 -15.166672 -45.0l75.83333 0l0 0c8.3763275 0 15.166672 20.147186 15.166672 45.0c0 24.852814 -6.790344 45.0 -15.166672 45.0z" fill-rule="evenodd"/><path stroke="#000000" stroke-width="1.0" stroke-linejoin="round" stroke-linecap="butt" d="m192.83727 440.0l-75.83333 0c8.37632 0 15.166672 -20.147186 15.166672 -45.0c0 -24.852814 -6.790352 -45.0 -15.166672 -45.0l75.83333 0l0 0c8.3763275 0 15.166672 20.147186 15.166672 45.0c0 24.852814 -6.790344 45.0 -15.166672 45.0z" fill-rule="evenodd"/><path fill="#ffffff" d="m151.00787 350.0l150.01575 0l0 90.01575l-150.01575 0z" fill-rule="evenodd"/><path stroke="#000000" stroke-width="1.0" stroke-linejoin="round" stroke-linecap="butt" d="m151.00787 350.0l150.01575 0l0 90.01575l-150.01575 0z" fill-rule="evenodd"/><path fill="#38761d" d="m281.02362 350.0l20.0 0l0 9.007874l-20.0 0z" fill-rule="evenodd"/><path fill="#ff0000" d="m173.49606 359.50394l105.03937 0l0 70.99213l-105.03937 0z" fill-rule="evenodd"/></g></svg>