<svg xmlns:xlink="http://www.w3.org/1999/xlink" xmlns="http://www.w3.org/2000/svg" version="1.1" fill="none" stroke="none" stroke-linecap="square" stroke-miterlimit="10" width="25.482969284057617" height="41.48297119140625" style=""><rect id="backgroundrect" width="100%" height="100%" x="0" y="0" fill="none" stroke="none" style="" class=""/><clipPath id="p.0"><path d="m0 0l1152.0 0l0 864.0l-1152.0 0l0 -864.0z" clip-rule="nonzero" id="svg_1"/></clipPath><g class="currentLayer" style=""><title>Layer 1</title><g clip-path="url(#p.0)" id="svg_2" class="selected" stroke-opacity="1" stroke="#4a90d6"><path fill="#000000" fill-opacity="0.0" d="m-2.6617649278891804,-4.062701225280762 l672.3222198486328,0 l0,581.5728664398193 l-672.3222198486328,0 z" fill-rule="evenodd" id="svg_3" stroke="#4a90d6"/><path fill="#ffe599" d="m2.5949156182852846,1.1665576483681726 l22.179629898548125,0 l-4.435927963993954,18.849624728411435 l-13.307777355515839,0 z" fill-rule="evenodd" id="svg_4" stroke="#4a90d6"/><path stroke="#4a90d6" stroke-width="1.0" stroke-linejoin="round" stroke-linecap="butt" d="m2.5949156182852846,1.1665576483681726 l22.179629898548125,0 l-4.435927963993954,18.849624728411435 l-13.307777355515839,0 z" fill-rule="evenodd" id="svg_5"/><path fill="#ffd966" d="m2.5949156182852846,3.6897357616201027 l22.179629898548125,0 l0,1.336968439024091 l-22.179629898548125,0 z" fill-rule="evenodd" id="svg_6" stroke="#4a90d6"/><path stroke="#4a90d6" stroke-width="1.0" stroke-linejoin="round" stroke-linecap="butt" d="m2.5949156182852846,3.6897357616201027 l22.179629898548125,0 l0,1.336968439024091 l-22.179629898548125,0 z" fill-rule="evenodd" id="svg_7"/><path fill="#ffd966" d="m3.517611624947733,9.255569834969943 l20.334238468836308,0 l0,1.3369691121408338 l-20.334238468836308,0 z" fill-rule="evenodd" id="svg_8" stroke="#4a90d6"/><path stroke="#4a90d6" stroke-width="1.0" stroke-linejoin="round" stroke-linecap="butt" d="m3.517611624947733,9.255569834969943 l20.334238468836308,0 l0,1.3369691121408338 l-20.334238468836308,0 z" fill-rule="evenodd" id="svg_9"/><path fill="#ffd966" d="m4.809967838112755,14.821793642914301 l17.74952604250622,0 l0,1.3369691121408338 l-17.74952604250622,0 z" fill-rule="evenodd" id="svg_10" stroke="#4a90d6"/><path stroke="#4a90d6" stroke-width="1.0" stroke-linejoin="round" stroke-linecap="butt" d="m4.809967838112755,14.821793642914301 l17.74952604250622,0 l0,1.3369691121408338 l-17.74952604250622,0 z" fill-rule="evenodd" id="svg_11"/><path fill="#ffe599" d="m24.774546392253,38.86580777830777 l-22.179629898548125,0 l4.43592574626441,-18.849626074644924 l13.307777355515839,0 z" fill-rule="evenodd" id="svg_12" stroke="#4a90d6"/><path stroke="#4a90d6" stroke-width="1.0" stroke-linejoin="round" stroke-linecap="butt" d="m24.774546392253,38.86580777830777 l-22.179629898548125,0 l4.43592574626441,-18.849626074644924 l13.307777355515839,0 z" fill-rule="evenodd" id="svg_13"/><path fill="#ffd966" d="m24.774546392253,36.34262899193912 l-22.179629898548125,0 l0,-1.3369691121408338 l22.179629898548125,0 z" fill-rule="evenodd" id="svg_14" stroke="#4a90d6"/><path stroke="#4a90d6" stroke-width="1.0" stroke-linejoin="round" stroke-linecap="butt" d="m24.774546392253,36.34262899193912 l-22.179629898548125,0 l0,-1.3369691121408338 l22.179629898548125,0 z" fill-rule="evenodd" id="svg_15"/><path fill="#ffd966" d="m23.85184892655792,30.77679559170602 l-20.334238468836308,0 l0,-1.3369691121408338 l20.334238468836308,0 z" fill-rule="evenodd" id="svg_16" stroke="#4a90d6"/><path stroke="#4a90d6" stroke-width="1.0" stroke-linejoin="round" stroke-linecap="butt" d="m23.85184892655792,30.77679559170602 l-20.334238468836308,0 l0,-1.3369691121408338 l20.334238468836308,0 z" fill-rule="evenodd" id="svg_17"/><path fill="#ffd966" d="m22.5594927133929,25.21057178376168 l-17.74952604250622,0 l0,-1.3369691121408338 l17.74952604250622,0 z" fill-rule="evenodd" id="svg_18" stroke="#4a90d6"/><path stroke="#4a90d6" stroke-width="1.0" stroke-linejoin="round" stroke-linecap="butt" d="m22.5594927133929,25.21057178376168 l-17.74952604250622,0 l0,-1.3369691121408338 l17.74952604250622,0 z" fill-rule="evenodd" id="svg_19"/></g></g></svg>