<?xml version="1.0" encoding="UTF-8" standalone="no"?>
<svg
   xmlns:dc="http://purl.org/dc/elements/1.1/"
   xmlns:cc="http://creativecommons.org/ns#"
   xmlns:rdf="http://www.w3.org/1999/02/22-rdf-syntax-ns#"
   xmlns:svg="http://www.w3.org/2000/svg"
   xmlns="http://www.w3.org/2000/svg"
   xmlns:sodipodi="http://sodipodi.sourceforge.net/DTD/sodipodi-0.dtd"
   xmlns:inkscape="http://www.inkscape.org/namespaces/inkscape"
   version="1.1"
   viewBox="0 0 100 200"
   stroke-miterlimit="10"
   id="svg182"
   sodipodi:docname="display_7segs.svg"
   inkscape:version="0.92.3 (unknown)"
   width="100"
   height="200"
   style="fill:none;stroke:none;stroke-linecap:square;stroke-miterlimit:10">
  <metadata
     id="metadata188">
    <rdf:RDF>
      <cc:Work
         rdf:about="">
        <dc:format>image/svg+xml</dc:format>
        <dc:type
           rdf:resource="http://purl.org/dc/dcmitype/StillImage" />
        <dc:title></dc:title>
      </cc:Work>
    </rdf:RDF>
  </metadata>
  <defs
     id="defs186" />
  <sodipodi:namedview
     pagecolor="#ffffff"
     bordercolor="#666666"
     borderopacity="1"
     objecttolerance="10"
     gridtolerance="10"
     guidetolerance="10"
     inkscape:pageopacity="0"
     inkscape:pageshadow="2"
     inkscape:window-width="1920"
     inkscape:window-height="1019"
     id="namedview184"
     showgrid="false"
     inkscape:zoom="2.8284271"
     inkscape:cx="44.109297"
     inkscape:cy="119.18589"
     inkscape:window-x="0"
     inkscape:window-y="1080"
     inkscape:window-maximized="1"
     inkscape:current-layer="g180" />
  <clipPath
     id="p.0">
    <path
       d="M 0,0 H 800 V 600 H 0 Z"
       id="path169"
       inkscape:connector-curvature="0"
       style="clip-rule:nonzero" />
  </clipPath>
  <g
     clip-path="url(#p.0)"
     id="g180"
     transform="translate(0,-400)">
    <path
       d="M 0,0 H 800 V 600 H 0 Z"
       id="path172"
       inkscape:connector-curvature="0"
       style="fill:#000000;fill-opacity:0;fill-rule:evenodd" />
    <path
       d="M 13.521481,402.03998 H 98.035848 V 593.0962 H 13.521481 Z"
       id="path174"
       inkscape:connector-curvature="0"
       style="fill:#f3f0e2;fill-rule:evenodd;stroke-width:0.44723514" />
    <path
       d="M 13.521481,402.03998 H 98.035848 V 593.0962 H 13.521481 Z"
       id="path176"
       inkscape:connector-curvature="0"
       style="fill-rule:evenodd;stroke:#000000;stroke-width:0.44723514;stroke-linecap:butt;stroke-linejoin:round" />
    <path
       d="M 3.8865685,408.94691 H 88.400936 v 191.0562 H 3.8865685 Z"
       id="path178"
       inkscape:connector-curvature="0"
       style="fill:#000000;fill-rule:evenodd;stroke-width:0.44723514" />
    <path
       style="fill:#f3f0e2;fill-opacity:1;stroke-width:0.03953039"
       d="m 88.428177,596.38585 v -3.02302 h 4.375816 c 2.604429,0 4.361208,0.015 4.33973,0.0372 -0.01985,0.0204 -1.805216,1.25399 -3.96748,2.74125 -2.16227,1.48727 -4.115148,2.83091 -4.339729,2.98589 l -0.408337,0.28175 z"
       id="path206"
       inkscape:connector-curvature="0" />
    <path
       style="fill:#f3f0e2;fill-opacity:1;stroke-width:0.44723514"
       id="path210"
       d="m 88.501728,592.80027 c -8.58e-4,0.008 -0.0013,0.0164 -0.0013,0.0246 -1.55e-4,0.005 8.7e-5,0.01 -4.29e-4,0.0145 -4.3e-4,0.004 -8.6e-4,0.007 -0.0013,0.0108 -1.46e-4,0.004 -1.42e-4,0.007 -1.46e-4,0.0108 3.4e-4,0.004 8.6e-4,0.007 0.0013,0.0108 3.02e-4,0.004 3.35e-4,0.007 3.66e-4,0.011 1.2e-5,0.004 5e-6,0.007 0,0.0109 1.07e-4,0.004 -8.6e-4,0.007 -0.0013,0.011 -4.04e-4,0.004 -4.3e-4,0.007 -4.3e-4,0.0108 2.11e-4,0.004 -4.17e-4,0.007 -8.59e-4,0.0111 -4.3e-4,0.004 -4.3e-4,0.007 -8.59e-4,0.0109 -4.3e-4,0.004 -0.0013,0.007 -0.0013,0.0108 -6.5e-5,4.8e-4 -1.33e-4,9.4e-4 -2.01e-4,0.002 0,0 -0.02247,0.0118 -0.02247,0.0118 v 0 c 1.2e-4,-4.6e-4 2.37e-4,-9.3e-4 3.57e-4,-0.001 1.97e-4,-0.004 4.29e-4,-0.007 0.0013,-0.011 4.31e-4,-0.004 2.62e-4,-0.007 8.59e-4,-0.0109 4.3e-4,-0.004 0.0013,-0.007 0.0013,-0.0107 3e-5,-0.004 6.8e-5,-0.007 3.99e-4,-0.011 3.7e-4,-0.004 0.0013,-0.007 0.0013,-0.0107 0,-0.004 9e-6,-0.007 5e-6,-0.0109 -1.4e-5,-0.004 -2.5e-5,-0.007 -2.62e-4,-0.0108 -2.96e-4,-0.004 -8.6e-4,-0.007 -0.0013,-0.011 0,-0.004 -8e-6,-0.007 9e-5,-0.0109 1.38e-4,-0.004 3.74e-4,-0.007 8.6e-4,-0.0111 8.59e-4,-0.005 8.59e-4,-0.009 8.59e-4,-0.0143 3.19e-4,-0.008 8.6e-4,-0.0165 0.0013,-0.0247 0,0 0.02226,-0.012 0.02226,-0.012 z"
       inkscape:connector-curvature="0" />
    <rect
       style="fill:#f3f0e2;fill-opacity:1;stroke-width:0.44723514"
       id="rect216"
       width="0.18465628"
       height="0.64724767"
       x="88.401817"
       y="592.75293" />
    <rect
       style="fill:#f3f0e2;fill-opacity:1;stroke-width:1.33073843"
       id="rect225"
       width="0.58075744"
       height="1.4408666"
       x="522.76416"
       y="395.26782"
       transform="matrix(0.76384082,0.64540468,-0.76384082,0.64540468,0,0)" />
    <path
       style="fill:#f3f0e2;fill-opacity:1;stroke-width:0.0279522"
       d="m 88.604451,593.10235 v -0.21817 h 4.153633 4.153636 l -0.25235,0.21676 -0.252352,0.21674 -3.901281,10e-4 -3.901286,10e-4 z"
       id="path3930"
       inkscape:connector-curvature="0" />
    <path
       style="fill:#f3f0e2;fill-opacity:1;stroke-width:0.0279522"
       d="m 88.604451,593.10716 v -0.22298 h 4.140779 c 2.277428,0 4.135743,0.005 4.129587,0.0114 -0.0062,0.006 -0.112876,0.0979 -0.237154,0.20364 l -0.225964,0.19221 -0.982695,2e-5 c -0.540483,10e-6 -2.297116,0.009 -3.903624,0.0193 l -2.920929,0.0193 z"
       id="path3932"
       inkscape:connector-curvature="0" />
    <rect
       style="fill:#f3f0e2;fill-opacity:1;stroke-width:0.44104761"
       id="rect3934"
       width="8.7382212"
       height="0.89806569"
       x="88.401817"
       y="592.50214" />
    <path
       style="fill:#f3f0e2;fill-opacity:1;stroke-width:0.07906076"
       d="m 8.7091668,405.81369 c 2.3951632,-1.71919 4.3694082,-3.12581 4.3872092,-3.12581 0.01781,0 0.03237,1.40696 0.03237,3.12657 v 3.12659 l -4.3872099,-9.3e-4 -4.3872095,-9.3e-4 4.3548419,-3.12582 z"
       id="path3936"
       inkscape:connector-curvature="0" />
  </g>
  <rect
     style="fill:#f3f0e2;fill-opacity:1;stroke-width:0.38257548"
     id="rect192"
     width="1.3315736"
     height="6.6006694"
     x="13.155863"
     y="2.3355451" />
  <path
     style="fill:none;stroke:#000000;stroke-width:0.44723514px;stroke-linecap:butt;stroke-linejoin:miter;stroke-opacity:1"
     d="M 3.8865685,8.946911 C 13.521481,2.0399912 13.521481,2.0399912 13.521481,2.0399912"
     id="path194"
     inkscape:connector-curvature="0" />
  <path
     style="fill:none;stroke:#000000;stroke-width:0.52004242px;stroke-linecap:butt;stroke-linejoin:miter;stroke-opacity:1"
     d="M 86.832653,10.117051 C 98.016484,2.0716595 98.016484,2.0716595 98.016484,2.0716595"
     id="path196"
     inkscape:connector-curvature="0" />
  <path
     style="fill:none;stroke:#000000;stroke-width:0.44378459px;stroke-linecap:butt;stroke-linejoin:miter;stroke-opacity:1"
     d="m 98.035848,193.0962 c -9.758459,6.71465 -9.758459,6.71465 -9.758459,6.71465"
     id="path198"
     inkscape:connector-curvature="0" />
</svg>
