<?xml version="1.0" encoding="UTF-8" standalone="no"?>
<svg
   xmlns:dc="http://purl.org/dc/elements/1.1/"
   xmlns:cc="http://creativecommons.org/ns#"
   xmlns:rdf="http://www.w3.org/1999/02/22-rdf-syntax-ns#"
   xmlns:svg="http://www.w3.org/2000/svg"
   xmlns="http://www.w3.org/2000/svg"
   xmlns:sodipodi="http://sodipodi.sourceforge.net/DTD/sodipodi-0.dtd"
   xmlns:inkscape="http://www.inkscape.org/namespaces/inkscape"
   version="1.1"
   stroke-miterlimit="10"
   width="225"
   height="50"
   style="fill:none;stroke:none;stroke-linecap:square;stroke-miterlimit:10"
   id="svg4506"
   sodipodi:docname="potentiometer.svg"
   inkscape:version="0.92.3 (unknown)">
  <metadata
     id="metadata4512">
    <rdf:RDF>
      <cc:Work
         rdf:about="">
        <dc:format>image/svg+xml</dc:format>
        <dc:type
           rdf:resource="http://purl.org/dc/dcmitype/StillImage" />
        <dc:title></dc:title>
      </cc:Work>
    </rdf:RDF>
  </metadata>
  <defs
     id="defs4510" />
  <sodipodi:namedview
     pagecolor="#ffffff"
     bordercolor="#666666"
     borderopacity="1"
     objecttolerance="10"
     gridtolerance="10"
     guidetolerance="10"
     inkscape:pageopacity="0"
     inkscape:pageshadow="2"
     inkscape:window-width="1920"
     inkscape:window-height="1019"
     id="namedview4508"
     showgrid="false"
     inkscape:zoom="3.0931408"
     inkscape:cx="166.4728"
     inkscape:cy="-48.596061"
     inkscape:window-x="0"
     inkscape:window-y="1080"
     inkscape:window-maximized="1"
     inkscape:current-layer="svg4506" />
  <rect
     id="backgroundrect"
     width="100%"
     height="100%"
     x="0"
     y="-6"
     style="fill:none;stroke:none"
     class="" />
  <clipPath
     id="p.0">
    <path
       d="M 0,0 H 1152 V 864 H 0 Z"
       id="svg_1"
       inkscape:connector-curvature="0"
       style="clip-rule:nonzero" />
  </clipPath>
  <g
     class="currentLayer"
     id="g4504"
     transform="matrix(0.38591244,0,0,0.95501672,1.2931812,-1.7863266)">
    <title
       id="title4493">Layer 1</title>
    <g
       clip-path="url(#p.0)"
       id="svg_2"
       class="">
      <path
         d="M -5.2452087e-6,-15.690382 H 1152 V 848.30962 H -5.2452087e-6 Z"
         id="svg_3"
         inkscape:connector-curvature="0"
         style="fill:#000000;fill-opacity:0;fill-rule:evenodd" />
      <path
         d="M 7.7480264,8.0681475 H 570.99213 V 49.076022 H 7.7480264 Z"
         id="svg_4"
         inkscape:connector-curvature="0"
         style="fill:#000000;fill-rule:evenodd" />
      <path
         d="M 7.7480264,8.0681475 H 570.99213 V 49.076022 H 7.7480264 Z"
         id="svg_5"
         inkscape:connector-curvature="0"
         style="fill-rule:evenodd;stroke:#cccccc;stroke-width:8;stroke-linecap:butt;stroke-linejoin:round" />
      <path
         d="M 7.7480264,25.116748 H 570.99213 v 6.929134 H 7.7480264 Z"
         id="svg_6"
         inkscape:connector-curvature="0"
         style="fill:#d9d9d9;fill-rule:evenodd" />
      <path
         d="m 14.76844,28.563326 v 0 c 0,-1.148056 2.608735,-2.07874 5.826771,-2.07874 v 0 c 3.218037,0 5.826771,0.930683 5.826771,2.07874 v 0 c 0,1.148056 -2.608734,2.078739 -5.826771,2.078739 v 0 c -3.218036,0 -5.826771,-0.930683 -5.826771,-2.078739 z"
         id="svg_7"
         inkscape:connector-curvature="0"
         style="fill:#000000;fill-rule:evenodd" />
      <path
         d="m 14.76844,28.563326 v 0 c 0,-1.148056 2.608735,-2.07874 5.826771,-2.07874 v 0 c 3.218037,0 5.826771,0.930683 5.826771,2.07874 v 0 c 0,1.148056 -2.608734,2.078739 -5.826771,2.078739 v 0 c -3.218036,0 -5.826771,-0.930683 -5.826771,-2.078739 z"
         id="svg_8"
         inkscape:connector-curvature="0"
         style="fill-rule:evenodd;stroke:#000000;stroke-width:1;stroke-linecap:butt;stroke-linejoin:round" />
      <path
         d="m 552.33153,28.565054 v 0 c 0,-1.148056 2.60871,-2.07874 5.82673,-2.07874 v 0 c 3.21807,0 5.82678,0.930683 5.82678,2.07874 v 0 c 0,1.148056 -2.60871,2.078739 -5.82678,2.078739 v 0 c -3.21802,0 -5.82673,-0.930683 -5.82673,-2.078739 z"
         id="svg_9"
         inkscape:connector-curvature="0"
         style="fill:#000000;fill-rule:evenodd" />
      <path
         d="m 552.33153,28.565054 v 0 c 0,-1.148056 2.60871,-2.07874 5.82673,-2.07874 v 0 c 3.21807,0 5.82678,0.930683 5.82678,2.07874 v 0 c 0,1.148056 -2.60871,2.078739 -5.82678,2.078739 v 0 c -3.21802,0 -5.82673,-0.930683 -5.82673,-2.078739 z"
         id="svg_10"
         inkscape:connector-curvature="0"
         style="fill-rule:evenodd;stroke:#000000;stroke-width:1;stroke-linecap:butt;stroke-linejoin:round" />
    </g>
  </g>
</svg>
